<svg xmlns="http://www.w3.org/2000/svg" width="500" height="250" version="1.0" viewBox="0 0 375 187.5"><defs><clipPath id="a"><path d="M81 112h18v17.629H81Zm0 0"/></clipPath><clipPath id="b"><path d="M86 112h13v17.629H86Zm0 0"/></clipPath><clipPath id="c"><path d="M94 106h5v23.629h-5Zm0 0"/></clipPath><clipPath id="d"><path d="M116 74h7.953v8H116Zm0 0"/></clipPath><clipPath id="e"><path d="M81 112h18v17.629H81Zm0 0"/></clipPath><clipPath id="f"><path d="M86 112h13v17.629H86Zm0 0"/></clipPath><clipPath id="g"><path d="M94 106h5v23.629h-5Zm0 0"/></clipPath><clipPath id="h"><path d="M121 76h2.953v14H121Zm0 0"/></clipPath><clipPath id="i"><path d="M119 75h4.953v7H119Zm0 0"/></clipPath><clipPath id="j"><path d="M122 75h1.953v2H122Zm0 0"/></clipPath><clipPath id="k"><path d="M78 42.86h3V45h-3Zm0 0"/></clipPath><clipPath id="l"><path d="M96 47h27.953v30H96Zm0 0"/></clipPath></defs><path fill="#fff" d="m113.492 102.98-.078-.054 6.504-8.906.078.054Zm0 0"/><path fill="#040053" fill-opacity=".62" d="m69.98 60.465 1.645 1.418 1.629-3.754Zm0 0"/><path fill="#3de2e5" d="m69.98 60.465 1.766 1.55-5.441 1.551Zm0 0"/><path fill="#040053" fill-opacity=".78" d="m69.98 60.465 1.766 1.55-5.441 1.551Zm0 0"/><path fill="#3de2e5" d="m69.98 60.465 1.645 1.418 1.629-3.754Zm0 0"/><path fill="#040053" fill-opacity=".75" d="m69.98 60.465 1.645 1.418 1.629-3.754Zm0 0"/><path fill="#fff" d="m71.645 61.96-1.739-1.5 3.461-2.468Zm-1.586-1.491 1.55 1.336 1.532-3.535Zm0 0"/><path fill="#3de2e5" d="m77.488 53.004 6.098 2.203-5.356 1.996-4.976.926Zm0 0"/><path fill="#040053" fill-opacity=".51" d="m77.488 53.004 6.098 2.203-5.356 1.996-4.976.926Zm0 0"/><path fill="#fff" d="m73.133 58.2 4.34-5.25.03.007 6.22 2.25-5.477 2.04Zm4.37-5.141-4.132 5 4.848-.903 5.226-1.949Zm0 0"/><path fill="#3de2e5" d="m73.254 58.129-1.68 3.805 6.617-4.696Zm0 0"/><path fill="#040053" fill-opacity=".75" d="m73.254 58.129-1.68 3.805 6.617-4.696Zm0 0"/><path fill="#fff" d="m71.46 62.07 1.759-3.98.027-.004 5.145-.93Zm1.825-3.898-1.597 3.621 6.3-4.469Zm0 0"/><path fill="#3de2e5" d="m69.98 60.465-3.664 3.074-.625-1.664Zm0 0"/><path fill="#fff" d="m66.285 63.648-.656-1.8 4.57-1.5Zm-.535-1.742.578 1.582 3.438-2.902Zm0 0"/><path fill="#3de2e5" d="m97.828 81.516.73 4.16 7.907-4.54Zm0 0"/><path fill="#040053" fill-opacity=".73" d="m97.828 81.516.73 4.16 7.907-4.54Zm0 0"/><path fill="#fff" d="m98.504 85.79-.09-.536-.668-3.805 9.012-.398-8.25 4.738Zm-.59-4.208.695 3.98.348-.199 7.219-4.14Zm0 0"/><path fill="#e50000" d="m44.852 110.188 12.55-2.313-8.097-2.016Zm0 0"/><path fill="#e50000" d="m49.305 105.86 8.097 2.015-3.609-8.617Zm0 0"/><path fill="#e50000" d="m60.445 101.586-3.043 6.289-3.609-8.617ZM49.305 105.86l-.563-9.036 5.051 2.434Zm0 0"/><path fill="#e5b800" fill-opacity=".18" d="m49.305 105.86-.563-9.036 5.051 2.434Zm0 0"/><path fill="#e50000" d="m44.852 110.188-.457-9.04 4.91 4.711Zm0 0"/><path fill="#fff" fill-opacity=".5" d="m44.852 110.188-.457-9.04 4.91 4.711Zm0 0"/><path fill="#e50000" d="m44.852 110.188-8.36-4.52 4.102.191ZM44.395 101.148l-3.801 4.711 4.258 4.329Zm0 0"/><path fill="#040053" fill-opacity=".1" d="m44.395 101.148-3.801 4.711 4.258 4.329Zm0 0"/><path fill="#e50000" d="m36.492 105.668 1.11-4.184 2.992 4.375Zm0 0"/><path fill="#040053" fill-opacity=".18" d="m36.492 105.668 1.11-4.184 2.992 4.375Zm0 0"/><path fill="#e50000" d="m44.395 101.148-3.29-.96-.511 5.671Zm0 0"/><path fill="#040053" fill-opacity=".2" d="m44.395 101.148-3.29-.96-.511 5.671Zm0 0"/><path fill="#e50000" d="m37.602 101.484 3.503-1.296-.511 5.671Zm0 0"/><path fill="#fff" fill-opacity=".31" d="m37.602 101.484 3.503-1.296-.511 5.671Zm0 0"/><path fill="#e50000" d="m39.52 93.918-1.918 7.566 3.503-1.296Zm0 0"/><path fill="#040053" fill-opacity=".13" d="m39.52 93.918-1.918 7.566 3.503-1.296Zm0 0"/><path fill="#e50000" d="m44.395 101.148-3.29-.96-1.585-6.27Zm0 0"/><path fill="#fff" fill-opacity=".41" d="m44.395 101.148-3.29-.96-1.585-6.27Zm0 0"/><path fill="#e50000" d="m49.305 105.86-4.91-4.712 4.347-4.324Zm0 0"/><path fill="#040053" fill-opacity=".2" d="m49.305 105.86-4.91-4.712 4.347-4.324Zm0 0"/><path fill="#e50000" d="m39.52 93.918 4.875 7.23-.618-8.683Zm0 0"/><path fill="#e5b800" fill-opacity=".4" d="m39.52 93.918 4.875 7.23-.618-8.683Zm0 0"/><path fill="#e50000" d="m48.742 96.824-4.347 4.324-.618-8.683Zm0 0"/><path fill="#fff" fill-opacity=".58" d="m48.742 96.824-4.347 4.324-.618-8.683Zm0 0"/><path fill="#e50000" d="m39.52 93.918 4.257-1.453-2.054-5.867Zm0 0"/><path fill="#fff" fill-opacity=".29" d="m39.52 93.918 4.257-1.453-2.054-5.867Zm0 0"/><path fill="#e5b800" d="m51.82 88.418-8.043 4.047-2.054-5.867Zm0 0"/><path fill="#e50000" fill-opacity=".25" d="m51.82 88.418-8.043 4.047-2.054-5.867Zm0 0"/><path fill="#e5b800" d="m48.742 96.824-4.965-4.36 8.043-4.046Zm0 0"/><path fill="#e50000" fill-opacity=".41" d="m48.742 96.824-4.965-4.36 8.043-4.046Zm0 0"/><path fill="#e5b800" d="m41.723 86.598 4.238-4.043 5.86 5.863Zm0 0"/><path fill="#fff" fill-opacity=".1" d="m41.723 86.598 4.238-4.043 5.86 5.863Zm0 0"/><path fill="#e5b800" d="m51.82 88.418-5.86-5.863 3.645-4.344Zm0 0"/><path fill="#fff" fill-opacity=".59" d="m51.82 88.418-5.86-5.863 3.645-4.344Zm0 0"/><path fill="#e5b800" d="m59.441 83.586-7.62 4.832-2.216-10.207Zm0 0"/><path fill="#fff" fill-opacity=".78" d="m59.441 83.586-7.62 4.832-2.216-10.207Zm0 0"/><path fill="#e50000" d="m53.793 99.258-5.05-2.434 3.077-8.406Zm0 0"/><path fill="#040053" fill-opacity=".17" d="m53.793 99.258-5.05-2.434 3.077-8.406Zm0 0"/><path fill="#e50000" d="m60.445 101.586-6.652-2.328 4.664-5.094 3.996 1.453ZM66.656 95.492c-.035.07-6.21 6.094-6.21 6.094l2.007-5.969Zm0 0"/><path fill="#e5b800" d="m53.793 99.258 4.664-5.094-6.637-5.746Zm0 0"/><path fill="#e50000" fill-opacity=".2" d="m53.793 99.258 4.664-5.094-6.637-5.746Zm0 0"/><path fill="#e5b800" d="m62.586 89.273-10.766-.855 6.637 5.746Zm0 0"/><path fill="#e50000" fill-opacity=".35" d="m62.586 89.273-10.766-.855 6.637 5.746Zm0 0"/><path fill="#e5b800" d="m59.441 83.586 3.145 5.687-10.766-.855Zm0 0"/><path fill="#e50000" fill-opacity=".14" d="m59.441 83.586 3.145 5.687-10.766-.855Zm0 0"/><path fill="#e5b800" d="m49.605 78.21 7.02-6.308 2.816 11.684Zm0 0"/><path fill="#fff" fill-opacity=".62" d="m49.605 78.21 7.02-6.308 2.816 11.684Zm0 0"/><path fill="#e5b800" d="m65.52 74.703-6.079 8.883-2.816-11.684Zm0 0"/><path fill="#fff" fill-opacity=".82" d="m65.52 74.703-6.079 8.883-2.816-11.684Zm0 0"/><path fill="#e50000" d="m65.73 80.656-6.289 2.93 6.079-8.883Zm0 0"/><path fill="#e5b800" fill-opacity=".75" d="m65.73 80.656-6.289 2.93 6.079-8.883Zm0 0"/><path fill="#e5b800" d="m62.586 89.273 1.687-3.644-4.832-2.043Zm0 0"/><path fill="#e50000" fill-opacity=".2" d="m62.586 89.273 1.687-3.644-4.832-2.043Zm0 0"/><path fill="#e5b800" d="m65.73 80.656-1.457 4.973-4.832-2.043Zm0 0"/><path fill="#e50000" fill-opacity=".39" d="m65.73 80.656-1.457 4.973-4.832-2.043Zm0 0"/><path fill="#e5b800" d="m62.586 89.273 6.5-1.378-4.813-2.266Zm0 0"/><path fill="#e50000" fill-opacity=".41" d="m62.586 89.273 6.5-1.378-4.813-2.266Zm0 0"/><path fill="#e50000" d="m62.453 95.617.133-6.344-4.129 4.891ZM66.656 95.492l-4.07-6.219-.133 6.344Zm0 0"/><path fill="#e50000" d="m69.086 87.895-6.5 1.378 4.07 6.22Zm0 0"/><path fill="#e50000" d="m72.434 90.16-5.778 5.332 2.43-7.597Zm0 0"/><path fill="#e5b800" d="m65.73 80.656 3.356 7.239-4.813-2.266Zm0 0"/><path fill="#fff" fill-opacity=".53" d="m65.73 80.656 3.356 7.239-4.813-2.266Zm0 0"/><path fill="#e5b800" d="m72.434 90.16-3.348-2.265 4.437-9.684Zm0 0"/><path fill="#e50000" fill-opacity=".3" d="m72.434 90.16-3.348-2.265 4.437-9.684Zm0 0"/><path fill="#e5b800" d="m65.73 80.656 7.793-2.445-4.437 9.684Zm0 0"/><path fill="#e50000" fill-opacity=".14" d="m65.73 80.656 7.793-2.445-4.437 9.684Zm0 0"/><path fill="#e5b800" d="m56.625 71.902 8.895 2.801-4.446-7.05Zm0 0"/><path fill="#fff" fill-opacity=".57" d="m56.625 71.902 8.895 2.801-4.446-7.05Zm0 0"/><path fill="#e5b800" d="m69.977 67.77-4.457 6.933-4.446-7.05Zm0 0"/><path fill="#fff" fill-opacity=".82" d="m69.977 67.77-4.457 6.933-4.446-7.05Zm0 0"/><path fill="#e5b800" d="m73.523 78.21-7.793 2.446-.21-5.953Zm0 0"/><path fill="#fff" fill-opacity=".36" d="m73.523 78.21-7.793 2.446-.21-5.953Zm0 0"/><path fill="#e5b800" d="m69.977 67.77-4.457 6.933 8.003 3.508Zm0 0"/><path fill="#fff" fill-opacity=".63" d="m69.977 67.77-4.457 6.933 8.003 3.508Zm0 0"/><path fill="#3de2e5" d="m66.34 63.566-5.266 4.086 8.903.118Zm0 0"/><path fill="#040053" fill-opacity=".14" d="m66.34 63.566-5.266 4.086 8.903.118Zm0 0"/><path fill="#3de2e5" d="m73.523 78.21 2.93-6.308-2.039-4.855-4.437.723Zm0 0"/><path fill="#e5b800" d="m72.434 90.16 5.125-4.531-4.036-7.418Zm0 0"/><path fill="#e50000" fill-opacity=".2" d="m72.434 90.16 5.125-4.531-4.036-7.418Zm0 0"/><path fill="#e5b800" d="m80.254 78.883-2.695 6.746-4.036-7.418Zm0 0"/><path fill="#e50000" fill-opacity=".21" d="m80.254 78.883-2.695 6.746-4.036-7.418Zm0 0"/><path fill="#3de2e5" d="m76.453 71.902 3.8 6.98-6.73-.671Zm0 0"/><path fill="#fff" fill-opacity=".51" d="m76.453 71.902 3.8 6.98-6.73-.671Zm0 0"/><path fill="#3de2e5" d="m74.414 67.047 11.05 1.144-9.01 3.711Zm0 0"/><path fill="#040053" fill-opacity=".14" d="m74.414 67.047 11.05 1.144-9.01 3.711Zm0 0"/><path fill="#3de2e5" d="m66.34 63.566 5.375-1.632-1.738 5.836Zm0 0"/><path fill="#3de2e5" d="m74.414 67.047-4.437.723 1.738-5.836Zm0 0"/><path fill="#fff" fill-opacity=".51" d="m74.414 67.047-4.437.723 1.738-5.836Zm0 0"/><path fill="#3de2e5" d="M82.32 61.352c0 .07-7.906 5.695-7.906 5.695l-2.7-5.113Zm0 0"/><path fill="#3de2e5" d="m78.191 57.238-6.476 4.696 10.605-.582Zm0 0"/><path fill="#fff" fill-opacity=".63" d="m78.191 57.238-6.476 4.696 10.605-.582Zm0 0"/><path fill="#3de2e5" d="m85.465 68.191-11.05-1.144 7.905-5.695ZM85.98 72.508l-9.527-.606 9.012-3.71Zm0 0"/><path fill="#fff" fill-opacity=".51" d="m85.98 72.508-9.527-.606 9.012-3.71Zm0 0"/><path fill="#3de2e5" d="m80.254 78.883 5.726-6.375-9.527-.606Zm0 0"/><path fill="#040053" fill-opacity=".14" d="m80.254 78.883 5.726-6.375-9.527-.606Zm0 0"/><path fill="#e50000" d="m77.559 85.629 1.578 2.93 3.675-7.055-2.558-2.621Zm0 0"/><path fill="#e5b800" fill-opacity=".77" d="m77.559 85.629 1.578 2.93 3.675-7.055-2.558-2.621Zm0 0"/><path fill="#e50000" d="m72.434 90.16 6.703-1.601-1.578-2.93Zm0 0"/><path fill="#040053" fill-opacity=".56" d="m44.852 110.188 12.55-2.313-8.097-2.016Zm0 0"/><path fill="#040053" fill-opacity=".63" d="m49.305 105.86 8.097 2.015-3.609-8.617Zm0 0"/><path fill="#040053" fill-opacity=".54" d="m60.445 101.586-3.043 6.289-3.609-8.617Zm0 0"/><path fill="#040053" fill-opacity=".63" d="m60.445 101.586-6.652-2.328 4.664-5.094 3.996 1.453Zm0 0"/><path fill="#040053" fill-opacity=".54" d="M66.656 95.492c-.035.07-6.21 6.094-6.21 6.094l2.007-5.969ZM62.453 95.617l.133-6.344-4.129 4.891Zm0 0"/><path fill="#040053" fill-opacity=".75" d="m66.656 95.492-4.07-6.219-.133 6.344Zm0 0"/><path fill="#040053" fill-opacity=".54" d="m69.086 87.895-6.5 1.378 4.07 6.22Zm0 0"/><path fill="#040053" fill-opacity=".75" d="m72.434 90.16-5.778 5.332 2.43-7.597ZM72.434 90.16l6.703-1.601-1.578-2.93Zm0 0"/><path fill="#3de2e5" d="m90.7 87.2-7.302-1.032-4.261 2.39 3.675-7.054Zm0 0"/><path fill="#040053" fill-opacity=".52" d="m90.7 87.2-7.302-1.032-4.261 2.39 3.675-7.054Zm0 0"/><path fill="#3de2e5" d="m85.98 72.508-3.168 8.996-2.558-2.621ZM88.117 79.957l-5.305 1.547 3.168-8.996Zm0 0"/><path fill="#040053" fill-opacity=".18" d="m88.117 79.957-5.305 1.547 3.168-8.996Zm0 0"/><path fill="#3de2e5" d="m90.7 87.2-7.888-5.696 5.305-1.547Zm0 0"/><path fill="#040053" fill-opacity=".37" d="m90.7 87.2-7.888-5.696 5.305-1.547Zm0 0"/><path fill="#3de2e5" d="M93.914 77.973 90.7 87.199l-2.582-7.242Zm0 0"/><path fill="#040053" fill-opacity=".56" d="M93.914 77.973 90.7 87.199l-2.582-7.242Zm0 0"/><path fill="#3de2e5" d="m85.98 72.508 7.934 5.465-5.797 1.984Zm0 0"/><path fill="#040053" fill-opacity=".44" d="m85.98 72.508 7.934 5.465-5.797 1.984Zm0 0"/><path fill="#3de2e5" d="m92.996 71.902-7.016.606-.515-4.317ZM82.32 61.352l4.79 1.867-1.645 4.972Zm0 0"/><path fill="#3de2e5" d="m78.191 57.238 5.442-2.05-1.313 6.164Zm0 0"/><path fill="#3de2e5" d="m87.11 63.219-4.79-1.867 1.313-6.164Zm0 0"/><path fill="#fff" fill-opacity=".33" d="m87.11 63.219-4.79-1.867 1.313-6.164Zm0 0"/><path fill="#3de2e5" d="m93.23 66.094-7.765 2.097 1.644-4.972ZM92.996 71.902l-7.531-3.71 7.765-2.098Zm0 0"/><path fill="#040053" fill-opacity=".14" d="m92.996 71.902-7.531-3.71 7.765-2.098Zm0 0"/><path fill="#3de2e5" d="m93.914 77.973-7.934-5.465 7.016-.606Zm0 0"/><path fill="#040053" fill-opacity=".18" d="m93.914 77.973-7.934-5.465 7.016-.606Zm0 0"/><path fill="#3de2e5" d="m90.7 87.2 7.038-5.626-3.824-3.601Zm0 0"/><path fill="#040053" fill-opacity=".72" d="m90.7 87.2 7.038-5.626-3.824-3.601Zm0 0"/><path fill="#3de2e5" d="m96.883 73.371-2.969 4.602 3.824 3.601Zm0 0"/><path fill="#040053" fill-opacity=".37" d="m96.883 73.371-2.969 4.602 3.824 3.601Zm0 0"/><path fill="#3de2e5" d="m93.914 77.973 2.969-4.602-3.887-1.469Zm0 0"/><path fill="#3de2e5" d="m93.23 66.094-.234 5.808 3.887 1.47Zm0 0"/><path fill="#040053" fill-opacity=".34" d="m93.23 66.094-.234 5.808 3.887 1.47Zm0 0"/><path fill="#3de2e5" d="m97.738 81.574 4.028-7.742-4.883-.46Zm0 0"/><path fill="#040053" fill-opacity=".56" d="m97.738 81.574 4.028-7.742-4.883-.46Zm0 0"/><path fill="#3de2e5" d="m93.23 66.094 9.504 2.996-5.851 4.281Zm0 0"/><path fill="#fff" fill-opacity=".42" d="m93.23 66.094 9.504 2.996-5.851 4.281Zm0 0"/><path fill="#3de2e5" d="M87.11 63.219s2.156-4.723 2.238-4.688 3.882 7.563 3.882 7.563Zm0 0"/><path fill="#3de2e5" d="m83.633 55.188 5.715 3.343s-2.203 4.77-2.239 4.688Zm0 0"/><path fill="#040053" fill-opacity=".14" d="m83.633 55.188 5.715 3.343s-2.203 4.77-2.239 4.688Zm0 0"/><path fill="#3de2e5" d="m93.23 66.094 3.415-3.555-7.297-4.008Zm0 0"/><path fill="#040053" fill-opacity=".22" d="m93.23 66.094 3.415-3.555-7.297-4.008Zm0 0"/><path fill="#3de2e5" d="m102.734 69.09-9.504-2.996 3.415-3.555ZM101.766 73.832l-4.883-.46 5.851-4.282Zm0 0"/><path fill="#040053" fill-opacity=".44" d="m101.766 73.832-4.883-.46 5.851-4.282Zm0 0"/><path fill="#3de2e5" d="m97.738 81.574 5.88-.156-1.852-7.586Zm0 0"/><path fill="#040053" fill-opacity=".38" d="m97.738 81.574 5.88-.156-1.852-7.586Zm0 0"/><path fill="#3de2e5" d="m106.465 81.137 2.066 8.203s3.711-6.18 3.531-6.242l-5.593-1.961Zm0 0"/><path fill="#040053" fill-opacity=".16" d="m106.465 81.137 2.066 8.203s3.711-6.18 3.531-6.242l-5.593-1.961Zm0 0"/><path fill="#3de2e5" d="m98.559 85.676 7.906-4.54-2.254 6.923Zm0 0"/><path fill="#040053" fill-opacity=".16" d="m98.559 85.676 7.906-4.54-2.254 6.923Zm0 0"/><path fill="#3de2e5" d="m108.531 89.34-4.32-1.281 2.254-6.922Zm0 0"/><path fill="#3de2e5" d="m104.21 88.059.798 6.21s3.664-4.882 3.52-4.93zm0 0"/><path fill="#040053" fill-opacity=".16" d="m104.21 88.059.798 6.21s3.664-4.882 3.52-4.93zm0 0"/><path fill="#3de2e5" d="m98.559 85.676 1.851 4.879 3.8-2.496Zm0 0"/><path fill="#fff" fill-opacity=".4" d="m98.559 85.676 1.851 4.879 3.8-2.496Zm0 0"/><path fill="#3de2e5" d="m108.531 89.34 1.735 5.254 4.695-3.223c-.137-.039-6.43-2.031-6.43-2.031m0 0"/><path fill="#040053" fill-opacity=".43" d="m108.531 89.34 1.735 5.254 4.695-3.223c-.137-.039-6.43-2.031-6.43-2.031m0 0"/><path fill="#3de2e5" d="m105.012 94.27 5.254.324-1.735-5.254ZM100.41 90.555l4.602 3.715-.801-6.211Zm0 0"/><path fill="#3de2e5" d="m100.41 90.555 4.602 3.715-.801-6.211ZM98.559 85.676l-3.11 6.293 4.961-1.414Zm0 0"/><path fill="#040053" fill-opacity=".32" d="m98.559 85.676-3.11 6.293 4.961-1.414Zm0 0"/><path fill="#3de2e5" d="m105.012 94.27-6.625 2.835 2.023-6.55Zm0 0"/><path fill="#040053" fill-opacity=".43" d="m105.012 94.27-6.625 2.835 2.023-6.55Zm0 0"/><path fill="#3de2e5" d="m106.625 102.602-8.238-5.497 6.625-2.835Zm0 0"/><path fill="#040053" fill-opacity=".56" d="m106.625 102.602-8.238-5.497 6.625-2.835Zm0 0"/><path fill="#3de2e5" d="m110.266 94.594-3.641 8.008-1.613-8.332Zm0 0"/><path fill="#040053" fill-opacity=".76" d="m110.266 94.594-3.641 8.008-1.613-8.332Zm0 0"/><path fill="#3de2e5" d="m98.387 97.105-.332 9.282 8.57-3.785Zm0 0"/><path fill="#040053" fill-opacity=".87" d="m98.387 97.105-.332 9.282 8.57-3.785Zm0 0"/><path fill="#3de2e5" d="m95.45 91.969 2.937 5.136-6.774 1.524Zm0 0"/><path fill="#040053" fill-opacity=".77" d="m95.45 91.969 2.937 5.136-6.774 1.524Zm0 0"/><path fill="#3de2e5" d="m98.559 85.676-10.114 5.953 7.004.34ZM90.664 87.02l-2.219 4.609 10.114-5.953Zm0 0"/><path fill="#040053" fill-opacity=".24" d="m90.664 87.02-2.219 4.609 10.114-5.953Zm0 0"/><path fill="#3de2e5" d="m91.613 98.629-3.168-7 7.004.34Zm0 0"/><path fill="#040053" fill-opacity=".24" d="m91.613 98.629-3.168-7 7.004.34Zm0 0"/><path fill="#3de2e5" d="m82.695 89.297 7.97-2.277c-.056.109-2.22 4.609-2.22 4.609Zm0 0"/><path fill="#3de2e5" d="m82.695 89.297-2.875 3.098 8.625-.766Zm0 0"/><path fill="#fff" fill-opacity=".38" d="m82.695 89.297-2.875 3.098 8.625-.766Zm0 0"/><path fill="#3de2e5" d="m91.613 98.629-5.75 1.43 2.582-8.43Zm0 0"/><path fill="#040053" fill-opacity=".41" d="m91.613 98.629-5.75 1.43 2.582-8.43Zm0 0"/><path fill="#3de2e5" d="m79.82 92.395 2.875 3.449 5.75-4.215Zm0 0"/><path fill="#fff" fill-opacity=".2" d="m79.82 92.395 2.875 3.449 5.75-4.215Zm0 0"/><path fill="#3de2e5" d="m85.863 100.059-3.168-4.215 5.75-4.215Zm0 0"/><path fill="#040053" fill-opacity=".19" d="m85.863 100.059-3.168-4.215 5.75-4.215Zm0 0"/><path fill="#3de2e5" d="m82.695 89.297-3.8 1.937.925 1.16Zm0 0"/><path fill="#040053" fill-opacity=".16" d="m82.695 89.297-3.8 1.937.925 1.16Zm0 0"/><path fill="#3de2e5" d="m82.695 95.844-5.136 1.785 2.261-5.234Zm0 0"/><path fill="#040053" fill-opacity=".16" d="m82.695 95.844-5.136 1.785 2.261-5.234Zm0 0"/><path fill="#e50000" d="m78.895 91.234-5.985 1.16 1.504 2.176 5.406-2.175Zm0 0"/><path fill="#3de2e5" d="m77.559 97.629-3.145-3.059 5.406-2.175Zm0 0"/><path fill="#fff" fill-opacity=".2" d="m77.559 97.629-3.145-3.059 5.406-2.175Zm0 0"/><path fill="#e50000" d="m72.91 92.395-3.566 3.222 5.07-1.047Zm0 0"/><path fill="#040053" fill-opacity=".25" d="m72.91 92.395-3.566 3.222 5.07-1.047Zm0 0"/><path fill="#3de2e5" d="m77.559 97.629-4.297 2.43 1.152-5.489Zm0 0"/><path fill="#fff" fill-opacity=".69" d="m77.559 97.629-4.297 2.43 1.152-5.489Zm0 0"/><path fill="#3de2e5" d="m82.695 95.844-3.261 5.742-1.875-3.957Zm0 0"/><path fill="#3de2e5" d="m85.863 100.059-6.43 1.527 3.262-5.742Zm0 0"/><path fill="#3de2e5" d="m73.262 100.059 6.172 1.527-1.875-3.957Zm0 0"/><path fill="#e50000" fill-opacity=".54" d="m73.262 100.059 6.172 1.527-1.875-3.957Zm0 0"/><path fill="#e50000" d="m69.344 95.617-2.16 7.195s7.68-8.332 7.23-8.242Zm0 0"/><path fill="#fff" fill-opacity=".23" d="m69.344 95.617-2.16 7.195s7.68-8.332 7.23-8.242Zm0 0"/><path fill="#e50000" d="m73.262 100.059-6.078 2.754 7.23-8.243Zm0 0"/><path fill="#fff" fill-opacity=".42" d="m73.262 100.059-6.078 2.754 7.23-8.243Zm0 0"/><path fill="#e50000" d="m69.344 95.617-5.02 4.676 2.86 2.52Zm0 0"/><path fill="#fff" fill-opacity=".59" d="m69.344 95.617-5.02 4.676 2.86 2.52Zm0 0"/><path fill="#3de2e5" d="m73.262 100.059 1.48 7.68 4.692-6.153Zm0 0"/><path fill="#e50000" fill-opacity=".6" d="m73.262 100.059 1.48 7.68 4.692-6.153Zm0 0"/><path fill="#e50000" d="m67.184 102.813 7.558 4.925-1.48-7.68Zm0 0"/><path fill="#040053" fill-opacity=".12" d="m67.184 102.813 7.558 4.925-1.48-7.68Zm0 0"/><path fill="#e50000" d="m64.324 100.293.446 5.46 2.414-2.94Zm0 0"/><path fill="#040053" fill-opacity=".09" d="m64.324 100.293.446 5.46 2.414-2.94Zm0 0"/><path fill="#e50000" d="m62.164 108.695 2.606-2.941s-.457-5.617-.446-5.461c.012.152-2.16 8.402-2.16 8.402m0 0"/><path fill="#fff" fill-opacity=".17" d="m62.164 108.695 2.606-2.941s-.457-5.617-.446-5.461c.012.152-2.16 8.402-2.16 8.402m0 0"/><path fill="#e50000" d="m74.742 107.738-6.781 7.098-.777-12.023Zm0 0"/><path fill="#e50000" d="m62.164 108.695 5.797 6.14-.777-12.022Zm0 0"/><path fill="#fff" fill-opacity=".2" d="m62.164 108.695 5.797 6.14-.777-12.022Zm0 0"/><path fill="#e50000" d="m73.402 116.773-5.441-1.937s6.828-7.398 6.781-7.098c-.05.305-1.34 9.035-1.34 9.035m0 0"/><path fill="#fff" fill-opacity=".49" d="m73.402 116.773-5.441-1.937s6.828-7.398 6.781-7.098c-.05.305-1.34 9.035-1.34 9.035m0 0"/><path fill="#e50000" d="m74.742 107.738 4.504 7.59-5.844 1.445Zm0 0"/><path fill="#040053" fill-opacity=".29" d="m74.742 107.738 4.504 7.59-5.844 1.445Zm0 0"/><path fill="#e50000" d="m79.246 116.379-5.844.394 5.844-1.445Zm0 0"/><path fill="#040053" fill-opacity=".73" d="m79.246 116.379-5.844.394 5.844-1.445Zm0 0"/><path fill="#3de2e5" d="m74.742 107.738 10.078 2.64-5.574 4.95Zm0 0"/><path fill="#e50000" fill-opacity=".67" d="m74.742 107.738 10.078 2.64-5.574 4.95Zm0 0"/><path fill="#e50000" d="m79.246 116.379 6.91-3.953-1.336-2.047-5.574 4.95Zm0 0"/><path fill="#040053" fill-opacity=".73" d="m79.246 116.379 6.91-3.953-1.336-2.047-5.574 4.95Zm0 0"/><path fill="#3de2e5" d="m74.742 107.738 7.754-1.23 2.324 3.87Zm0 0"/><path fill="#040053" fill-opacity=".57" d="m74.742 107.738 7.754-1.23 2.324 3.87Zm0 0"/><path fill="#3de2e5" d="m79.434 101.586 3.062 4.922-7.754 1.23Zm0 0"/><path fill="#040053" fill-opacity=".31" d="m79.434 101.586 3.062 4.922-7.754 1.23Zm0 0"/><path fill="#3de2e5" d="m85.863 100.059-3.367 6.449-3.062-4.922Zm0 0"/><path fill="#040053" fill-opacity=".39" d="m85.863 100.059-3.367 6.449-3.062-4.922Zm0 0"/><path fill="#3de2e5" d="m82.496 106.508 4.988-.426-2.664 4.297Zm0 0"/><path fill="#040053" fill-opacity=".81" d="m82.496 106.508 4.988-.426-2.664 4.297Zm0 0"/><path fill="#3de2e5" d="m85.863 100.059 5.75-1.43-4.129 7.453-4.988.426Zm0 0"/><path fill="#040053" fill-opacity=".7" d="m85.863 100.059 5.75-1.43-4.129 7.453-4.988.426Zm0 0"/><g clip-path="url(#a)"><path fill="#3de2e5" d="M81.836 114.898s17.14 14.707 17.047 14.66c-.098-.046-12.59-17.21-12.727-17.132l-4.324 2.472Zm0 0"/><path fill="#040053" fill-opacity=".7" d="M81.836 114.898s17.14 14.707 17.047 14.66c-.098-.046-12.59-17.21-12.727-17.132l-4.324 2.472Zm0 0"/></g><path fill="#3de2e5" d="m84.82 110.379 7.66.723-6.324 1.324Zm0 0"/><path fill="#040053" fill-opacity=".8" d="m84.82 110.379 7.66.723-6.324 1.324Zm0 0"/><g clip-path="url(#b)"><path fill="#3de2e5" d="m98.883 129.559-4.59-10.954-8.137-6.18Zm0 0"/><path fill="#040053" fill-opacity=".19" d="m98.883 129.559-4.59-10.954-8.137-6.18Zm0 0"/></g><path fill="#3de2e5" d="m92.48 111.102 1.813 7.503-8.137-6.18Zm0 0"/><path fill="#040053" fill-opacity=".45" d="m92.48 111.102 1.813 7.503-8.137-6.18Zm0 0"/><g clip-path="url(#c)"><path fill="#3de2e5" d="m98.055 106.387.828 23.172-4.59-10.954Zm0 0"/><path fill="#040053" fill-opacity=".52" d="m98.055 106.387.828 23.172-4.59-10.954Zm0 0"/></g><path fill="#3de2e5" d="m92.48 111.102 5.575-4.715-3.762 12.218Zm0 0"/><path fill="#040053" fill-opacity=".24" d="m92.48 111.102 5.575-4.715-3.762 12.218Zm0 0"/><path fill="#3de2e5" d="m87.484 106.082 10.57.305-5.574 4.715-7.66-.723Zm0 0"/><path fill="#3de2e5" d="m87.484 106.082 10.57.305-5.574 4.715-7.66-.723Zm0 0"/><path fill="#040053" fill-opacity=".59" d="m87.484 106.082 10.57.305-5.574 4.715-7.66-.723Zm0 0"/><path fill="#3de2e5" d="m87.484 106.082 10.57.305-6.44-7.758Zm0 0"/><path fill="#040053" fill-opacity=".84" d="m87.484 106.082 10.57.305-6.44-7.758Zm0 0"/><path fill="#3de2e5" d="m106.625 102.602-3.82 4.976-4.75-1.191Zm0 0"/><path fill="#040053" d="m106.625 102.602-3.82 4.976-4.75-1.191Zm0 0"/><path fill="#3de2e5" d="m113.453 102.953-10.648 4.625 3.82-4.976Zm0 0"/><path fill="#040053" fill-opacity=".87" d="m113.453 102.953-10.648 4.625 3.82-4.976Zm0 0"/><path fill="#3de2e5" d="m106.625 102.602 6.656-4.856.172 5.207Zm0 0"/><path fill="#040053" d="m106.625 102.602 6.656-4.856.172 5.207Zm0 0"/><path fill="#3de2e5" d="m110.266 94.594 3.015 3.152-6.656 4.856Zm0 0"/><path fill="#040053" fill-opacity=".56" d="m110.266 94.594 3.015 3.152-6.656 4.856Zm0 0"/><path fill="#e50000" d="m26.867 97.86 5.996 4.753.848-6.945Zm0 0"/><path fill="#040053" fill-opacity=".48" d="m26.867 97.86 5.996 4.753.848-6.945Zm0 0"/><path fill="#e50000" d="m23.824 87.719 3.043 10.14 5.93-6.847Zm0 0"/><path fill="#fff" fill-opacity=".4" d="m23.824 87.719 3.043 10.14 5.93-6.847Zm0 0"/><path fill="#e50000" d="m33.71 95.668-6.843 2.191 5.93-6.847Zm0 0"/><path fill="#fff" fill-opacity=".27" d="m33.71 95.668-6.843 2.191 5.93-6.847Zm0 0"/><path fill="#e50000" d="M32.797 91.012h5.363l-4.45 4.656Zm0 0"/><path fill="#e5b800" fill-opacity=".48" d="M32.797 91.012h5.363l-4.45 4.656Zm0 0"/><path fill="#e50000" d="m23.824 87.719 7.32-4.375 1.653 7.668Zm0 0"/><path fill="#fff" fill-opacity=".58" d="m23.824 87.719 7.32-4.375 1.653 7.668Zm0 0"/><path fill="#e5b800" d="m28.96 74.133-5.136 13.586 7.32-4.375Zm0 0"/><path fill="#fff" fill-opacity=".58" d="m28.96 74.133-5.136 13.586 7.32-4.375Zm0 0"/><path fill="#e50000" d="m35.598 85.813-2.801 5.199-1.652-7.668Zm0 0"/><path fill="#e5b800" fill-opacity=".58" d="m35.598 85.813-2.801 5.199-1.652-7.668Zm0 0"/><path fill="#e50000" d="M38.16 91.012h-5.363l2.8-5.2Zm0 0"/><path fill="#040053" fill-opacity=".15" d="M38.16 91.012h-5.363l2.8-5.2Zm0 0"/><path fill="#e50000" d="M39.29 85.813h-3.692l2.562 5.199ZM31.145 83.344l7.18-3.38-2.727 5.849Zm0 0"/><path fill="#e5b800" fill-opacity=".73" d="m31.145 83.344 7.18-3.38-2.727 5.849Zm0 0"/><path fill="#e5b800" d="m28.96 74.133 9.364 5.832-7.18 3.379Zm0 0"/><path fill="#fff" fill-opacity=".69" d="m28.96 74.133 9.364 5.832-7.18 3.379Zm0 0"/><path fill="#e50000" d="M39.29 85.813h-3.692l2.726-5.848Zm0 0"/><path fill="#040053" fill-opacity=".39" d="M39.29 85.813h-3.692l2.726-5.848Zm0 0"/><path fill="#e50000" d="M42.266 80.926c0 .176-2.973 4.883-2.973 4.883l-.969-5.848 3.946.96Zm0 0"/><path fill="#040053" fill-opacity=".19" d="M42.266 80.926c0 .176-2.973 4.883-2.973 4.883l-.969-5.848 3.946.96Zm0 0"/><path fill="#e50000" d="m42.695 82.695-3.406 3.118 2.977-4.887Zm0 0"/><path fill="#e5b800" d="m28.96 74.133 8.942.289.422 5.543Zm0 0"/><path fill="#fff" fill-opacity=".58" d="m28.96 74.133 8.942.289.422 5.543Zm0 0"/><path fill="#e5b800" d="m42.266 80.926.52-6.64-4.884.136.422 5.543c.145-.055 3.942.96 3.942.96m0 0"/><path fill="#fff" fill-opacity=".49" d="m42.266 80.926.52-6.64-4.884.136.422 5.543c.145-.055 3.942.96 3.942.96m0 0"/><path fill="#e5b800" d="m28.96 74.133 8.024-3.293-2.957-5.813Zm0 0"/><path fill="#fff" fill-opacity=".36" d="m28.96 74.133 8.024-3.293-2.957-5.813Zm0 0"/><path fill="#e5b800" d="m37.902 74.422-8.941-.29 8.023-3.292 2.676-1.086Zm0 0"/><path fill="#fff" fill-opacity=".36" d="m37.902 74.422-8.941-.29 8.023-3.292 2.676-1.086Zm0 0"/><path fill="#e5b800" d="m34.027 65.027 5.633 4.727-2.676 1.086Zm0 0"/><path fill="#fff" fill-opacity=".75" d="m34.027 65.027 5.633 4.727-2.676 1.086Zm0 0"/><path fill="#e5b800" d="m39.66 69.754 3.121 4.531-4.879.137Zm0 0"/><path fill="#fff" fill-opacity=".58" d="m39.66 69.754 3.121 4.531-4.879.137Zm0 0"/><path fill="#e50000" d="m42.266 80.926 8.5-7.567-7.985.926Zm0 0"/><path fill="#040053" fill-opacity=".12" d="m42.266 80.926 8.5-7.567-7.985.926Zm0 0"/><path fill="#e5b800" d="m44.922 66.902-5.262 2.852 3.121 4.531Zm0 0"/><path fill="#fff" fill-opacity=".72" d="m44.922 66.902-5.262 2.852 3.121 4.531Zm0 0"/><path fill="#e50000" d="M50.766 73.36v-4.672l-7.985 5.597Zm0 0"/><path fill="#e5b800" fill-opacity=".54" d="M50.766 73.36v-4.672l-7.985 5.597Zm0 0"/><path fill="#e5b800" d="m44.922 66.902 5.844 1.785-7.985 5.598Zm0 0"/><path fill="#fff" fill-opacity=".31" d="m44.922 66.902 5.844 1.785-7.985 5.598Zm0 0"/><path fill="#e5b800" d="m34.027 65.027 9.293-.578-3.66 5.305Zm0 0"/><path fill="#fff" fill-opacity=".27" d="m34.027 65.027 9.293-.578-3.66 5.305Zm0 0"/><path fill="#e5b800" d="m44.922 66.902-5.262 2.852 3.66-5.305Zm0 0"/><path fill="#fff" fill-opacity=".47" d="m44.922 66.902-5.262 2.852 3.66-5.305Zm0 0"/><path fill="#e5b800" d="m34.027 65.027 6.48-4.695 2.813 4.117Zm0 0"/><path fill="#fff" fill-opacity=".58" d="m34.027 65.027 6.48-4.695 2.813 4.117Zm0 0"/><path fill="#e5b800" d="m44.922 66.902 3.012-4.992-4.614 2.54Zm0 0"/><path fill="#fff" fill-opacity=".72" d="m44.922 66.902 3.012-4.992-4.614 2.54Zm0 0"/><path fill="#e5b800" d="m40.508 60.332 7.426 1.578-4.614 2.54Zm0 0"/><path fill="#fff" fill-opacity=".47" d="m40.508 60.332 7.426 1.578-4.614 2.54Zm0 0"/><path fill="#e5b800" d="m54.777 65.27-9.855 1.632 3.012-4.992Zm0 0"/><path fill="#fff" fill-opacity=".47" d="m54.777 65.27-9.855 1.632 3.012-4.992Zm0 0"/><path fill="#e50000" d="m50.766 68.688 4.011-3.418-9.855 1.632Zm0 0"/><path fill="#e5b800" fill-opacity=".8" d="m50.766 68.688 4.011-3.418-9.855 1.632Zm0 0"/><path fill="#e50000" d="m50.766 73.36 5-3.887-.989-4.203-4.011 3.418Zm0 0"/><path fill="#040053" fill-opacity=".3" d="m50.766 73.36 5-3.887-.989-4.203-4.011 3.418Zm0 0"/><path fill="#e5b800" d="m47.934 61.91 6.687-.297.156 3.657ZM40.508 60.332l3.34-2.73 4.086 4.308Zm0 0"/><path fill="#fff" fill-opacity=".72" d="m40.508 60.332 3.34-2.73 4.086 4.308Zm0 0"/><path fill="#e5b800" d="m54.621 61.613-6.687.297 3.836-5.023Zm0 0"/><path fill="#fff" fill-opacity=".34" d="m54.621 61.613-6.687.297 3.836-5.023Zm0 0"/><path fill="#e5b800" d="m51.77 56.887-7.922.715 4.086 4.308Zm0 0"/><path fill="#fff" fill-opacity=".47" d="m51.77 56.887-7.922.715 4.086 4.308Zm0 0"/><path fill="#3de2e5" d="m48.566 52.281-4.718 5.32 7.922-.714Zm0 0"/><path fill="#fff" fill-opacity=".65" d="m48.566 52.281-4.718 5.32 7.922-.714Zm0 0"/><path fill="#e5b800" d="m54.621 61.613-2.851-4.726 6.16-.387ZM54.777 65.27l-.156-3.657 4.488.157Zm0 0"/><path fill="#e50000" d="m55.766 69.473 3.992-3.38-4.98-.823Zm0 0"/><path fill="#e5b800" fill-opacity=".54" d="m55.766 69.473 3.992-3.38-4.98-.823Zm0 0"/><path fill="#e50000" d="M59.11 61.77 62.292 60l-2.535 6.094-4.98-.824Zm0 0"/><path fill="#e5b800" fill-opacity=".35" d="M59.11 61.77 62.292 60l-2.535 6.094-4.98-.824Zm0 0"/><path fill="#e5b800" d="m57.93 56.5 4.363 3.5-3.184 1.77-4.488-.157Zm0 0"/><path fill="#fff" fill-opacity=".34" d="m57.93 56.5 4.363 3.5-3.184 1.77-4.488-.157Zm0 0"/><path fill="#3de2e5" d="m59.758 66.094 8.148-9.438L62.293 60Zm0 0"/><path fill="#040053" fill-opacity=".26" d="m59.758 66.094 8.148-9.438L62.293 60Zm0 0"/><path fill="#3de2e5" d="m57.93 56.5 4.363 3.5 5.613-3.344Zm0 0"/><path fill="#fff" fill-opacity=".36" d="m57.93 56.5 4.363 3.5 5.613-3.344Zm0 0"/><path fill="#3de2e5" d="m51.77 56.887 8.304-5.992L57.93 56.5Zm0 0"/><path fill="#fff" fill-opacity=".51" d="m51.77 56.887 8.304-5.992L57.93 56.5Zm0 0"/><path fill="#3de2e5" d="m48.566 52.281 11.508-1.386-8.304 5.992Zm0 0"/><path fill="#fff" fill-opacity=".3" d="m48.566 52.281 11.508-1.386-8.304 5.992Zm0 0"/><path fill="#3de2e5" d="m57.93 56.5 2.144-5.605 7.832 1.093ZM67.906 56.656 57.93 56.5l9.976-4.512ZM48.566 52.281l16.743-4.308-5.235 2.922Zm0 0"/><path fill="#fff" fill-opacity=".77" d="m48.566 52.281 16.743-4.308-5.235 2.922Zm0 0"/><path fill="#3de2e5" d="m67.906 51.988-7.832-1.093 5.235-2.922ZM69.977 60.441l-2.07-3.785-2.75 3.188Zm0 0"/><path fill="#040053" fill-opacity=".45" d="m69.977 60.441-2.07-3.785-2.75 3.188Zm0 0"/><path fill="#3de2e5" d="m67.906 51.988 5.356.563v5.554l-5.356-1.449Zm0 0"/><path fill="#3de2e5" d="m69.977 60.441 3.285-2.336-5.356-1.449Zm0 0"/><path fill="#040053" fill-opacity=".19" d="m69.977 60.441 3.285-2.336-5.356-1.449Zm0 0"/><path fill="#3de2e5" d="m65.309 47.973 8.453.28-.5 4.298-5.356-.563Zm0 0"/><path fill="#3de2e5" d="m77.582 52.805-3.82-4.551-.5 4.297ZM73.262 58.105l4.32-5.3-4.32-.254Zm0 0"/><path fill="#040053" fill-opacity=".3" d="m73.262 58.105 4.32-5.3-4.32-.254Zm0 0"/><path fill="#3de2e5" d="m91.613 98.629 6.442 7.758.332-9.282Zm0 0"/><path fill="#040053" fill-opacity=".65" d="m91.613 98.629 6.442 7.758.332-9.282Zm0 0"/><path fill="#3de2e5" d="m95.45 91.969 2.937 5.136 2.023-6.55Zm0 0"/><path fill="#040053" fill-opacity=".16" d="m95.45 91.969 2.937 5.136 2.023-6.55Zm0 0"/><path fill="#3de2e5" d="m103.617 81.418 2.848-.281-4.7-7.305Zm0 0"/><path fill="#040053" fill-opacity=".37" d="m103.617 81.418 2.848-.281-4.7-7.305Zm0 0"/><path fill="#3de2e5" d="m65.203 59.809 4.668.605-.633.238-3.605 1.196-5.535 4.082v-.227Zm0 0"/><path fill="#040053" fill-opacity=".62" d="m65.203 59.809 4.668.605-.633.238-3.605 1.196-5.535 4.082v-.227Zm0 0"/><path fill="#fff" d="m44.684 110.27 4.605-4.47 8.367 2.083Zm4.636-4.348-4.3 4.176 12.125-2.235Zm0 0"/><path fill="#fff" d="m57.492 107.953-8.277-2.058 4.59-6.75Zm-8.097-2.129 7.914 1.969-3.528-8.422Zm0 0"/><path fill="#fff" d="m57.398 108.008-3.703-8.84 6.825 2.39Zm-3.507-8.656 3.515 8.39 2.965-6.12Zm0 0"/><path fill="#fff" d="m49.262 106.023-.582-9.289 5.191 2.5-.035.055-4.578 6.734Zm-.457-9.109.547 8.781 4.359-6.414Zm0 0"/><path fill="#fff" d="m44.805 110.309-.473-9.293 5.05 4.843Zm-.348-9.024.445 8.778 4.325-4.204Zm0 0"/><path fill="#fff" d="m45.145 110.406-8.692-4.699 4.164.098.016.015 4.515 4.586Zm-8.243-4.578 7.657 4.137-3.989-4.05Zm0 0"/><path fill="#fff" d="m44.914 110.328-4.394-4.465.03-.035 3.891-4.824Zm-4.246-4.473 4.121 4.192-.441-8.75Zm0 0"/><path fill="#fff" d="m40.7 105.922-4.278-.203 1.156-4.364Zm-4.138-.305 3.926.184-2.863-4.188Zm0 0"/><path fill="#fff" d="m40.523 106.035.532-5.918 3.433 1.004Zm.63-5.777-.489 5.43 3.637-4.508Zm0 0"/><path fill="#fff" d="m40.633 106.016-3.117-4.559 3.648-1.352-.531 5.915Zm-2.95-4.508 2.868 4.195.488-5.433Zm0 0"/><path fill="#fff" d="m37.523 101.57 1.997-7.875 1.648 6.528Zm1.997-7.425-1.84 7.253 3.36-1.242Zm0 0"/><path fill="#fff" d="m44.523 101.242-3.464-1.012-1.668-6.601 5.132 7.617Zm-3.375-1.097 3.118.91-4.618-6.848 1.5 5.934Zm0 0"/><path fill="#fff" d="m49.371 105.996-5.05-4.848.038-.039 4.434-4.41.578 9.293Zm-4.898-4.848 4.77 4.575-.548-8.774Zm0 0"/><path fill="#fff" d="m44.465 101.352-5.031-7.461 4.394-1.5.008.07Zm-4.86-7.403 4.723 7-.598-8.41Zm0 0"/><path fill="#fff" d="m44.348 101.273-.633-8.937 5.105 4.488Zm-.504-8.68.597 8.434 4.223-4.199Zm0 0"/><path fill="#fff" d="m39.438 94.004 2.28-7.582 2.13 6.078Zm2.289-7.227-2.122 7.055 4.106-1.402Zm0 0"/><path fill="#fff" d="m43.75 92.543-2.113-6.016 10.355 1.868Zm-1.945-5.875 2.004 5.719 7.843-3.942-9.851-1.777Zm0 0"/><path fill="#fff" d="m48.766 96.918-.059-.05-5.027-4.415.074-.035 8.164-4.106-3.152 8.61Zm-4.891-4.441 4.844 4.257 3.004-8.203-7.848 3.95Zm0 0"/><path fill="#fff" d="m51.984 88.504-10.379-1.871 4.36-4.156Zm-10.148-1.938 9.824 1.77-5.7-5.703Zm0 0"/><path fill="#fff" d="m51.914 88.59-6.027-6.031 3.746-4.465 2.281 10.5Zm-5.879-6.04 5.695 5.7-2.156-9.918Zm0 0"/><path fill="#fff" d="m51.785 88.508-2.262-10.403 10.024 5.477Zm-2.101-10.192 2.175 10.016 7.477-4.742Zm0 0"/><path fill="#fff" d="m53.863 99.355-5.191-2.503 3.168-8.641Zm-5.054-2.558 4.91 2.367-1.914-10.535Zm0 0"/><path fill="#fff" d="m60.48 101.656-6.785-2.37 4.746-5.184 4.079 1.484Zm-6.59-2.422 6.52 2.282 1.973-5.868-3.91-1.421Zm0 0"/><path fill="#fff" d="m60.32 101.785 2.09-6.222 4.336-.126-.039.083c-.035.07-4.363 4.293-6.223 6.109Zm2.172-6.113-1.922 5.719c1.977-1.926 5.371-5.243 5.957-5.836ZM53.758 99.375l-2.02-11.098 6.797 5.88Zm-1.856-10.812 1.926 10.578 4.55-4.973-6.476-5.602Zm0 0"/><path fill="#fff" d="m58.465 94.242-6.805-5.89 11.04.875-4.235 5.011Zm-6.48-5.754 6.468 5.598 4.024-4.766Zm0 0"/><path fill="#fff" d="m62.684 89.336-11.032-.875 7.809-4.95Zm-10.696-.957 10.5.828-3.066-5.543Zm0 0"/><path fill="#fff" d="m59.523 83.695-.109-.058-9.902-5.414 7.144-6.422ZM49.7 78.2l9.66 5.281-2.765-11.476Zm0 0"/><path fill="#fff" d="M59.418 83.719 56.551 71.82l9.054 2.856Zm-2.719-11.735 2.766 11.47 5.965-8.72Zm0 0"/><path fill="#fff" d="m59.285 83.719 6.281-9.184.22 6.156-.032.016Zm6.184-8.848-5.871 8.582 6.074-2.832Zm0 0"/><path fill="#fff" d="m62.59 89.395-3.274-5.918 5.032 2.125Zm-3.024-5.696 3.016 5.453 1.621-3.496Zm0 0"/><path fill="#fff" d="m64.313 85.703-5.004-2.113 6.507-3.031Zm-4.735-2.121 4.664 1.973 1.403-4.797-6.067 2.828Zm0 0"/><path fill="#fff" d="m62.488 89.348 1.762-3.79 5.004 2.356Zm1.813-3.645L62.68 89.2l6.234-1.324Zm0 0"/><path fill="#fff" d="M62.426 95.66s-.02 0-.028-.004l-4.035-1.469 4.282-5.07-.137 6.465c0 .023-.016.047-.035.063q-.018.016-.047.015m-3.875-1.52 3.847 1.4.13-6.114Zm0 0"/><path fill="#fff" d="m62.395 95.672.14-6.578 4.14 6.328c.016.027.02.058.005.082a.08.08 0 0 1-.067.047Zm.242-6.223-.13 6.11 4.052-.118Zm0 0"/><path fill="#fff" d="M66.652 95.523a.07.07 0 0 1-.062-.035l-4.094-6.254.078-.015 6.594-1.399-2.445 7.653c-.012.027-.032.047-.063.05zm-3.976-6.214 3.965 6.058 2.367-7.398Zm0 0"/><path fill="#fff" d="m66.691 95.54-.05-.02c-.024-.016-.032-.047-.024-.075l2.438-7.636 3.465 2.343-5.832 5.387Zm2.426-7.56-2.344 7.332 5.575-5.144-3.23-2.184Zm0 0"/><path fill="#fff" d="m69.2 88.008-4.99-2.352.013-.043 1.496-5.11Zm-4.86-2.41 4.633 2.183-3.23-6.969Zm0 0"/><path fill="#fff" d="M72.414 90.195a.1.1 0 0 1-.043-.011l-3.355-2.27 4.59-10.016-1.114 12.227a.08.08 0 0 1-.043.063q-.017.009-.035.007m-3.262-2.32 3.235 2.188 1.05-11.54Zm0 0"/><path fill="#fff" d="m69.086 88.023-3.43-7.398 7.965-2.504Zm-3.281-7.332 3.28 7.07 4.337-9.46-7.617 2.386ZM65.645 74.8l-9.122-2.874 4.563-4.36ZM56.73 71.88l8.665 2.73-4.332-6.87Zm0 0"/><path fill="#fff" d="m65.52 74.805-4.547-7.207 9.105.12Zm-4.348-7.098 4.348 6.895 4.355-6.782Zm0 0"/><path fill="#fff" d="m65.68 80.73-.22-6.109 8.216 3.602Zm-.102-5.94.207 5.796 7.582-2.379-7.789-3.414Zm0 0"/><path fill="#fff" d="m73.613 78.313-8.172-3.583 4.555-7.082Zm-8.011-3.633 7.828 3.433-3.47-10.218Zm0 0"/><path fill="#fff" d="m70.098 67.824-9.18-.117 5.43-4.215Zm-8.868-.222 8.625.113-3.523-4.07Zm0 0"/><path fill="#fff" d="m73.512 78.36-3.61-10.633 4.543-.743.016.04 2.05 4.878-.007.024ZM70.05 67.812l3.48 10.253 2.864-6.164-2.016-4.793Zm0 0"/><path fill="#fff" d="M72.453 90.191q-.018.002-.031-.007a.06.06 0 0 1-.04-.067l1.102-12.086 4.141 7.614-.031.027-5.094 4.504a.07.07 0 0 1-.047.02Zm1.106-11.793L72.5 90.028l4.988-4.41Zm0 0"/><path fill="#fff" d="m77.566 85.758-.054-.102-4.086-7.508 6.91.688Zm-3.949-7.48 3.934 7.222 2.629-6.57Zm0 0"/><path fill="#fff" d="m80.355 78.95-6.914-.692 3.012-6.477Zm-6.75-.782 6.555.652-3.703-6.797Zm0 0"/><path fill="#fff" d="m76.426 71.973-2.098-4.989 11.356 1.176ZM74.5 67.109l1.984 4.723 8.758-3.61ZM70 67.879l-3.758-4.34 5.551-1.691Zm-3.562-4.285 3.515 4.066 1.68-5.644Zm0 0"/><path fill="#fff" d="m69.898 67.84 1.801-6.05 2.797 5.3Zm1.829-5.762-1.672 5.625 4.273-.7-2.598-4.925Zm0 0"/><path fill="#fff" d="m74.395 67.129-2.77-5.246 10.75-.59v.055c0 .035 0 .101-7.93 5.742l-.05.035ZM71.8 61.984l2.629 4.98c2.476-1.76 6.937-4.944 7.726-5.55Zm0 0"/><path fill="#fff" d="m71.531 61.996 6.664-4.828.035.035 4.215 4.195L71.531 62Zm6.653-4.684-6.286 4.555 10.297-.566-4.007-3.989Zm0 0"/><path fill="#fff" d="m85.555 68.254-11.29-1.168 8.079-5.82Zm-10.993-1.246 10.813 1.12-3.074-6.694Zm0 0"/><path fill="#fff" d="m86.043 72.566-9.828-.625 9.293-3.828Zm-9.348-.703 9.223.59-.5-4.183Zm0 0"/><path fill="#fff" d="M80.246 78.977 76.36 71.84l9.739.62Zm-3.695-7.016 3.719 6.828 5.597-6.234Zm0 0"/><path fill="#fff" d="m79.137 88.676-1.64-3.043.01-.024 2.727-6.824 2.645 2.711-.016.031Zm-1.52-3.047 1.516 2.816 3.613-6.933-2.473-2.532Zm0 0"/><path fill="#fff" d="m72.234 90.266 5.34-4.723 1.645 3.055Zm5.309-4.547-4.91 4.34 6.422-1.532Zm0 0"/><path fill="#fff" d="m79 88.7 3.793-7.27.047.027 8.055 5.793-7.48-1.027Zm3.836-7.122-3.566 6.844 4.128-2.309 7.114 1.04-7.676-5.571Zm0 0"/><path fill="#fff" d="m82.836 81.605-2.656-2.718 5.945-6.617Zm-2.504-2.722 2.461 2.52 3.047-8.653Zm0 0"/><path fill="#fff" d="m82.727 81.586.035-.102 3.226-9.156 2.196 7.664Zm3.25-8.898-3.075 8.734 5.149-1.504Zm0 0"/><path fill="#fff" d="m90.809 87.328-8.133-5.84 5.472-1.597Zm-7.86-5.808 7.645 5.554-2.512-7.05Zm0 0"/><path fill="#fff" d="m90.7 87.344-2.653-7.418 5.965-2.043-3.313 9.465Zm-2.513-7.356 2.516 7.067 3.11-8.993Zm0 0"/><path fill="#fff" d="m88.078 80.027-2.191-7.648 8.144 5.61Zm-2.004-7.386 2.078 7.246 5.637-1.93-7.719-5.316Zm0 0"/><path fill="#fff" d="m85.934 72.566-.536-4.468 7.797 3.843Zm-.403-4.285.496 4.168 6.77-.586Zm0 0"/><path fill="#fff" d="m85.473 68.34-3.258-7.09 4.96 1.938Zm-3.047-6.89 3.031 6.59 1.582-4.79Zm0 0"/><path fill="#fff" d="m82.352 61.457-4.262-4.238 5.617-2.121-.02.097Zm-4.063-4.195 3.996 3.976 1.274-5.968-5.274 1.988Zm0 0"/><path fill="#fff" d="m87.207 63.316-4.95-1.933.009-.043 1.351-6.332 3.594 8.308Zm-4.824-2 4.62 1.805-3.35-7.758Zm0 0"/><path fill="#fff" d="m85.383 68.27 1.691-5.13 6.317 2.97Zm1.758-4.977-1.59 4.82 7.523-2.031Zm0 0"/><path fill="#fff" d="m93.05 71.988-7.737-3.812 7.976-2.153-.238 5.97Zm-7.433-3.785 7.328 3.613.23-5.648-7.554 2.035Zm0 0"/><path fill="#fff" d="m93.984 78.09-8.16-5.621 7.223-.625.941 6.246Zm-7.847-5.54 7.703 5.305-.89-5.894Zm0 0"/><path fill="#fff" d="m97.332 81.113-3.437-3.234-3.02 8.617-.16.457-.102.29-.031.093.398-.316.196-.157 6.281-5 .309-.242.062-.039Zm.02.637-6.23 5.023-.102.13-.172.14-.028.02.008-.016.04-.117.124-.356 2.942-8.508 3.347 3.153.367.344Zm0 0"/><path fill="#fff" d="M97.805 81.715 93.84 77.98l3.082-4.77Zm-3.825-3.75 3.688 3.469-.824-7.903Zm0 0"/><path fill="#fff" d="m93.879 78.125-.95-6.309 4.036 1.528Zm-.817-6.137.883 5.836 2.852-4.426Zm0 0"/><path fill="#fff" d="m96.996 73.473-4.055-1.532v-.043l.243-6.02 3.808 7.59Zm-3.945-1.606 3.722 1.403-3.496-6.961Zm0 0"/><path fill="#fff" d="m97.7 81.762-.88-8.453 5.032.48Zm-.755-8.332.825 7.957 3.91-7.504Zm0 0"/><path fill="#fff" d="m96.863 73.453-3.738-7.45 9.73 3.067Zm-3.523-7.266 3.562 7.102 5.715-4.18Zm0 0"/><path fill="#fff" d="m93.352 66.21-6.317-2.964.024-.05c.004-.012.543-1.196 1.09-2.356 1.12-2.403 1.152-2.39 1.222-2.36.024.012.098.043 3.91 7.59Zm-6.172-3.019 5.933 2.79c-1.031-2.04-3.433-6.778-3.77-7.356-.234.398-1.386 2.871-2.163 4.566m0 0"/><path fill="#fff" d="M87.11 63.273h-.036l-.015-.035-3.473-8.031-.066-.152 5.898 3.453-.02.047c-2.16 4.668-2.242 4.718-2.289 4.718m-3.36-7.957c.445 1.036 3.016 6.977 3.367 7.79.254-.465 1.387-2.883 2.16-4.555Zm0 0"/><path fill="#fff" d="m93.219 66.188-.035-.067-3.965-7.726 7.515 4.128-.046.055Zm-3.742-7.524L93.247 66l3.308-3.445Zm0 0"/><path fill="#fff" d="m89.39 58.621-5.933-3.476 6.36-.504-.008.062Zm-5.578-3.394 5.493 3.214.39-3.68Zm0 0"/><path fill="#fff" d="m96.707 62.637-7.512-4.13 7.043-1.527Zm-7.203-4.082 7.078 3.89-.441-5.328Zm0 0"/><path fill="#fff" d="m89.277 58.684.426-4.02.027-.016 5.915-2.636Zm.528-3.946-.387 3.637 5.762-6.04-5.375 2.4Zm0 0"/><path fill="#fff" d="m89.188 58.621 6.265-6.562.8 5.035Zm6.19-6.328-5.866 6.148 6.617-1.433ZM102.914 69.203l-9.785-3.082 3.516-3.66.043.043Zm-9.582-3.133 9.223 2.907-5.91-6.356Zm0 0"/><path fill="#fff" d="m101.813 73.895-.051-.004-5.028-.477 6.082-4.453Zm-4.782-.563 4.692.445.93-4.558-5.618 4.113ZM96.145 57.121l-.008-.062-.778-4.875.11-.02.765 4.813 6.516-2.215.04.101Zm0 0"/><path fill="#fff" d="M102.723 54.84c-.63-1.067-1.59-2.707-2.211-3.758l-.035-.062c-.016-.016-.02-.051-.043-.051.023 0 .027.035.043.047l.039.062c.3.488.804 1.297 1.113 1.793l1.187 1.914zm0 0"/><path fill="#fff" d="m95.414 52.176 7.375 2.586-.039.101ZM105.68 64.785l-9.086-2.2-.004-.042-.465-5.617.098.082Zm-8.98-2.289 8.546 2.07-8.992-7.394Zm0 0"/><path fill="#fff" d="m105.563 64.828-9.485-7.797 6.73-2.285 2.754 10.086ZM96.3 57.07l9.066 7.457-2.633-9.64ZM95.426 52.227l-.024-.106 5.032-1.207.05.008 6.118.547a.08.08 0 0 1 .046.062.09.09 0 0 1-.039.07l-.027-.054v.027l-6.14-.55-5.012 1.203Zm11.129-.723a.04.04 0 0 0-.02.035c0 .016.012.027.024.031l.015-.03Zm0 0"/><path fill="#fff" d="m102.734 54.77 3.848-3.22-3.777 3.305Zm0 0"/><path fill="#fff" d="m109.09 59.313-6.336-4.45.031-.101Zm0 0"/><path fill="#fff" d="m106.629 51.55 2.516 7.75-.11.028ZM102.742 69.18l-6.262-6.735 9.07 2.196Zm-5.933-6.543L102.727 69l2.652-4.29ZM97.645 81.633l4.14-7.953 1.867 7.699c.008.023 0 .047-.011.066a.08.08 0 0 1-.059.028l-5.934.16Zm4.105-7.645-3.922 7.528 5.707-.153Zm0 0"/><path fill="#fff" d="m101.691 73.934 1-4.907 9.02-.863Zm1.086-4.782-.937 4.586 9.504-5.52Zm0 0"/><path fill="#fff" d="m111.652 68.266-9.007.867 2.816-4.551Zm-8.828.78 8.582-.929-5.937-3.344Zm0 0"/><path fill="#fff" d="m105.41 64.66 3.68-5.347-3.574 5.378Zm0 0"/><path fill="#fff" d="m111.484 68.223-6.066-3.512.086-.066 6.07 3.511ZM103.629 81.469a.075.075 0 0 1-.07-.055l-1.922-7.883 4.922 7.653-2.922.285zm-1.731-7.328 1.758 7.218 2.715-.27-4.473-6.952Zm0 0"/><path fill="#fff" d="m106.484 81.27-4.796-7.457 9.925-5.723Zm-4.636-7.41 4.601 7.144 4.996-12.711-9.597 5.562Zm0 0"/><path fill="#fff" d="m111.473 68.2-2.418-8.884-.016-.109.078.082c.016.02 10.824 2.902 10.836 2.918 0 .02-8.414 5.973-8.422 5.992-.054-.02 8.39-6.004 8.383-6.015.043.136-10.855-2.88-10.852-2.848l.063-.027 2.457 8.875zm0 0"/><path fill="#fff" d="m106.383 81.238 5.12-13.164 4.935 7.09Zm5.172-12.933-5.004 12.73 9.715-5.906Zm0 0"/><path fill="#fff" d="m116.488 75.227-.425-.075.035-.23-4.653-6.746.055-.031 8.496-6.051-.016.117-3.765 12.68Zm-.3-.165.03.008-.027-.035Zm-4.579-6.859 4.512 6.574 3.734-12.465-8.242 5.891Zm0 0"/><path fill="#fff" d="m112.09 83.164-.047-.016-5.719-2.003 10.149-6.118Zm-5.485-2.035 5.43 1.902 4.195-7.761Zm0 0"/><path fill="#fff" d="m108.508 89.484-2.121-8.433.093.035s5.418 1.894 5.598 1.96l.024.009.015.03c.082.228-2.691 4.868-3.543 6.286l-.07.113Zm-1.965-8.261 2.008 7.98c1.379-2.3 3.355-5.672 3.457-6.066-.453-.16-4.762-1.672-5.465-1.914m0 0"/><path fill="#fff" d="m104.246 88.133-5.812-2.45.097-.054 8.031-4.613Zm-5.566-2.465 5.5 2.316 2.191-6.734Zm0 0"/><path fill="#fff" d="m108.605 89.422-4.46-1.328.015-.055 2.313-7.102 2.132 8.481Zm-4.324-1.402 4.172 1.242-1.992-7.93Zm0 0"/><g clip-path="url(#d)"><path fill="#fff" d="m119.336 81.563-3.012-6.364.324-.203 6.774.899.02.035a.1.1 0 0 1-.008.086l-.04-.028v.016l-6.984-.871 3.008 6.36-.082.073Zm4.004-5.61s-.004.012 0 .02l.02-.012-.016-.008Zm0 0"/></g><path fill="#fff" d="m114.988 91.441-.047-.015-6.492-2.051 3.578-6.328.024-.004 7.613-1.707Zm-6.379-2.129 6.32 1.997 4.544-9.817-7.38 1.653Zm0 0"/><path fill="#fff" d="m104.973 94.41-.016-.133-.809-6.293.079.024 4.32 1.285.027.008.012.031c.05.148-1.89 2.785-3.531 4.969l-.078.11Zm-.696-6.277.77 5.996c1.336-1.785 3.242-4.371 3.422-4.75zm0 0"/><path fill="#fff" d="m100.383 90.64-1.922-5.062.117.047 5.75 2.422Zm-1.727-4.863 1.781 4.696 3.66-2.403-5.445-2.293ZM110.238 94.684l-1.793-5.426.102.031 6.43 2.031.109.035Zm-1.62-5.258 1.679 5.082 4.543-3.117zm0 0"/><path fill="#fff" d="m110.344 94.656-5.434-.34 3.637-5.093Zm-5.23-.437 5.077.316-1.68-5.074Zm0 0"/><path fill="#fff" d="m105.082 94.398-4.762-3.847 3.938-2.586Zm-4.578-3.835 4.433 3.578-.765-5.989-3.668 2.407Zm0 0"/><path fill="#fff" d="m95.344 92.055 3.222-6.516 1.918 5.055Zm3.207-6.243-2.996 6.07 4.785-1.362-1.785-4.707Zm0 0"/><path fill="#fff" d="m98.3 97.203 2.083-6.738.062.05 4.668 3.77Zm2.141-6.555-1.964 6.36 6.43-2.754Zm0 0"/><path fill="#fff" d="m106.703 102.723-8.43-5.63 6.782-2.902 1.652 8.532ZM98.5 97.117l8.047 5.367-1.578-8.136Zm0 0"/><path fill="#fff" d="m106.602 102.781-1.66-8.57 5.406.336-.032.07Zm-1.524-8.453 1.567 8.098 3.539-7.781Zm0 0"/><path fill="#fff" d="m97.996 106.469.34-9.465.082.055 8.32 5.554Zm.445-9.266-.328 9.098 8.399-3.707Zm0 0"/><path fill="#fff" d="m91.504 98.707 3.945-6.848.047.082 2.977 5.2-.075.02Zm3.945-6.629-3.726 6.469 6.582-1.48Zm0 0"/><path fill="#fff" d="M95.484 92.023h-.039l-7.187-.347 10.43-6.14Zm-6.855-.437 6.785.328 3.012-6.098Zm0 0"/><path fill="#fff" d="m98.695 85.598-.144.023-.574.102-6.797 1.152-.024.004-.136.023-.153.028-.152.023-.063.012-.027.004-.277.578-2.028 4.219 9.696-5.707.824-.485Zm-.715.355-9.406 5.54 1.875-3.907.164-.344.086-.176.13-.02.019-.003.132-.023.211-.036 6.774-1.152.308-.05Zm0 0"/><path fill="#fff" d="m91.605 98.75-3.246-7.18 7.184.348-.047.078-3.887 6.754Zm-3.074-7.062 3.086 6.82 3.738-6.488Zm0 0"/><path fill="#fff" d="m88.473 91.7-5.946-2.415.153-.043 8.086-2.308-.055.109c-.05.11-2.219 4.613-2.219 4.613l-.023.043Zm-5.61-2.395 5.551 2.257c.211-.433 1.828-3.796 2.145-4.457l-7.7 2.2Zm0 0"/><path fill="#fff" d="m79.684 92.46 2.996-3.23 5.992 2.434Zm3.027-3.1-2.754 2.968 8.258-.73Zm0 0"/><path fill="#fff" d="m85.785 100.133.028-.094 2.62-8.562 3.254 7.187-5.906 1.469Zm2.672-8.348-2.512 8.195 5.594-1.39Zm0 0"/><path fill="#fff" d="m82.688 95.918-2.977-3.57 8.926-.79Zm-2.758-3.477 2.777 3.329 5.547-4.067Zm0 0"/><path fill="#fff" d="m85.887 100.176-3.266-4.344 5.926-4.344Zm-3.114-4.32 3.07 4.085 2.5-8.168ZM79.816 92.477l-1.007-1.262 4.136-2.11Zm-.836-1.227.844 1.059 2.621-2.829Zm0 0"/><path fill="#fff" d="m77.457 97.723 2.348-5.434 2.984 3.582-.074.024Zm2.379-5.227-2.18 5.043 4.946-1.719Zm0 0"/><path fill="#fff" d="m74.39 94.637-.023-.035-1.55-2.247 6.097-1.183.996 1.246Zm-1.386-2.207 1.43 2.074 5.3-2.133-.859-1.078Zm0 0"/><path fill="#fff" d="m77.574 97.727-3.261-3.176 5.609-2.258-2.348 5.43Zm-3.066-3.133 3.027 2.945 2.18-5.043Zm0 0"/><path fill="#fff" d="m69.16 95.71 3.762-3.397 1.582 2.296-5.348 1.102Zm3.742-3.233-3.37 3.046 4.788-.988Zm0 0"/><path fill="#fff" d="m73.184 100.168 1.195-5.703 3.27 3.176Zm1.261-5.484-1.105 5.27 4.125-2.333Zm0 0"/><path fill="#fff" d="m79.43 101.707-1.946-4.105 5.332-1.856Zm-1.797-4.043 1.808 3.805 3.137-5.524-4.945 1.715Zm0 0"/><path fill="#fff" d="m79.324 101.668 3.364-5.922.05.067 3.219 4.28-6.637 1.575Zm3.38-5.723-3.161 5.563 6.227-1.48Zm0 0"/><path fill="#fff" d="m79.535 101.668-6.418-1.59 4.465-2.523.023.054Zm-6.125-1.629 5.926 1.469-1.805-3.801ZM67.066 103.023l2.235-7.453.031-.007 5.07-1.047a.07.07 0 0 1 .075.03c.039.067.101.18-3.579 4.27-1.808 2.008-3.656 4.012-3.671 4.032Zm2.32-7.359-2.077 6.938c2.754-2.993 6.675-7.34 7.043-7.961Zm0 0"/><path fill="#fff" d="m66.977 102.969 7.53-8.59-1.195 5.719-.027.011-6.305 2.86Zm7.34-8.203-6.922 7.894 5.82-2.64Zm0 0"/><path fill="#fff" d="m67.215 102.91-2.91-2.562q-.026-.025-.028-.055a.08.08 0 0 1 .024-.059l5.156-4.796Zm-2.809-2.617 2.754 2.422 2.074-6.918ZM74.71 107.871l-1.519-7.887 6.336 1.57-.05.067Zm-1.378-7.738 1.441 7.476 4.567-5.988Zm0 0"/><path fill="#fff" d="m74.82 107.855-7.75-5.05 6.23-2.825.016.067Zm-7.523-5.035 7.367 4.801-1.441-7.484Zm0 0"/><path fill="#fff" d="m64.727 105.895-.461-5.61.074-.043.039.028 2.883 2.539Zm-.34-5.473.425 5.195 2.297-2.797Zm0 0"/><path fill="#fff" d="m62.184 108.758-.082-.04.011-.042c.555-2.11 2.145-8.18 2.153-8.383h.011c.004-.059.016-.059.04-.059l.054-.004.004.055c.008.063.074.903.156 1.906.125 1.547.285 3.477.285 3.496q0 .01-.023.11l-.012.023Zm2.113-8.098c-.344 1.45-1.719 6.676-2.02 7.828l2.414-2.726c.004-.02.016-.055.02-.07-.012-.141-.164-1.993-.285-3.489l-.11-1.344q-.01-.11-.015-.199ZM67.914 114.965l-.793-12.258 7.703 5.02-.047.05-6.867 7.188Zm-.668-12.047.758 11.789 6.652-6.957Zm0 0"/><path fill="#fff" d="m68.023 114.984-5.875-6.226c-.03-.031-.03-.086-.003-.121l5.09-5.961.792 12.308Zm-5.785-6.289 5.66 5.996-.757-11.738-4.903 5.746Zm0 0"/><path fill="#fff" d="M73.383 116.82s-.02 0-.028-.004l-5.492-1.957.055-.058a575 575 0 0 1 3.332-3.582c3.379-3.602 3.445-3.567 3.512-3.54l.035.02-.004.047c-.043.3-1.266 8.567-1.332 9.008a.07.07 0 0 1-.04.055.1.1 0 0 1-.042.011Zm-5.328-2.007 5.304 1.886 1.309-8.86c-.606.52-4.184 4.345-6.613 6.974m0 0"/><path fill="#fff" d="M73.422 116.824c-.016 0-.035-.004-.047-.02-.016-.015-.027-.038-.023-.062l1.355-9.164 4.621 7.781-5.887 1.461h-.02Zm1.351-8.926L73.47 116.7l5.691-1.41Zm0 0"/><path fill="#fff" d="m73.395 116.828-.024-.098.055-.015 5.875-1.457v1.172l-.051.004-5.86.398Zm5.796-1.43-5.171 1.282 5.171-.352Zm0 0"/><path fill="#fff" d="m79.234 115.414-4.605-7.762 10.305 2.696-5.7 5.062Zm-4.379-7.59 4.407 7.418 5.445-4.84Zm0 0"/><path fill="#fff" d="M79.191 116.473V115.3l.02-.016 5.621-4.988 1.402 2.148-7.039 4.028Zm.11-1.121v.933l6.777-3.879-1.27-1.945Zm0 0"/><path fill="#fff" d="m84.934 110.465-10.457-2.738 8.046-1.278Zm-9.93-2.711 9.7 2.539-2.235-3.723Zm0 0"/><path fill="#fff" d="m74.613 107.816 4.825-6.324 3.148 5.059-.082.011Zm4.817-6.132-4.563 5.98 7.54-1.2Zm0 0"/><path fill="#fff" d="m82.5 106.617-3.152-5.062 6.62-1.578-.054.109Zm-2.977-4.992 2.97 4.773 3.269-6.257Zm0 0"/><path fill="#fff" d="m84.82 110.48-2.418-4.02 5.184-.44Zm-2.23-3.925 2.23 3.715 2.559-4.125Zm0 0"/><path fill="#fff" d="m82.402 106.57.047-.086 3.375-6.472.028-.004 5.87-1.461-4.202 7.586h-.032zm3.496-6.465-3.308 6.34 4.86-.414 4.054-7.32Zm0 0"/><g clip-path="url(#e)"><path fill="#fff" d="m98.902 129.629-.047-.024q-.001 0-.015-.011c-.184-.192-16.871-14.512-17.04-14.653l-.058-.05 4.387-2.508c.086-.047.129-.078 9.066 12.097 1.957 2.66 3.645 4.961 3.723 5.04l-.008.007c.035.036.028.047.016.063ZM81.93 114.906c.523.45 4.5 3.86 8.468 7.27l5.864 5.039c.797.687 1.465 1.262 1.925 1.664q.189.164.317.273a1371 1371 0 0 1-3.395-4.613c-3.41-4.64-8.53-11.617-8.957-12.047Zm0 0"/></g><path fill="#fff" d="m86.133 112.488-1.422-2.175.113.011 8.02.758Zm-1.207-2.047 1.258 1.922 5.933-1.242Zm0 0"/><g clip-path="url(#f)"><path fill="#fff" d="M98.848 129.582a.1.1 0 0 1-.047-.016l-.012-.011-12.64-17.067-.032-.02.02-.05c.011-.027.047-.04.074-.031l.016.008 8.109 6.175.008.012 4.578 10.906c.008.035-.008.063-.031.082a.1.1 0 0 1-.043.012M86.43 112.684l12.28 16.578-4.464-10.625Zm0 0"/></g><path fill="#fff" d="M94.254 118.645s-.02 0-.027-.004l-.016-.008-8.035-6.149c-.024-.011-.035-.035-.035-.062s.023-.055.054-.063l5.977-1.25a.32.32 0 0 1 .387.282l1.78 7.148q.006.058-.03.086a.1.1 0 0 1-.055.02m-7.95-6.196 7.915 6.051-1.766-7.098a.2.2 0 0 0-.086-.148.2.2 0 0 0-.168-.04l-5.89 1.235Zm-.085.02"/><g clip-path="url(#g)"><path fill="#fff" d="M98.887 129.57h-.004c-.035 0-.059-.023-.067-.054l-4.582-10.907.004-.02 3.856-12.53.863 23.457-.004.007a.08.08 0 0 1-.066.047m.031-.093v.007zm-4.566-10.875 4.488 10.687-.828-22.578Zm0 0"/></g><path fill="#fff" d="M94.3 118.629h-.015c-.027-.008-.05-.031-.05-.063l-1.817-7.484.027-.02 5.715-4.835-3.8 12.375a.07.07 0 0 1-.06.03Zm.04-.082v.004zm-1.797-7.426 1.766 7.29 3.636-11.864Zm0 0"/><path fill="#fff" d="M92.355 111.14h-.043l-7.585-.714 2.722-4.399h.035l10.711.309-5.554 4.703a.44.44 0 0 1-.29.106Zm-7.44-.808 7.41.7c.085.011.179-.02.245-.079l5.34-4.516-10.394-.3Zm0 0"/><path fill="#fff" d="m98.172 106.445-10.781-.312 4.21-7.602.051.063Zm-10.598-.414 10.36.297-6.313-7.601Zm0 0"/><path fill="#fff" d="m102.828 107.637-.035-.008-4.906-1.23 8.91-3.934Zm-4.605-1.266 4.562 1.145 3.668-4.774-8.23 3.633Zm0 0"/><path fill="#fff" d="m102.8 107.64-.058-.066.024-.035 3.832-4.988 7.09.363Zm3.848-4.98-3.671 4.781 10.242-4.445Zm0 0"/><path fill="#fff" d="m113.508 103.012-.059-.004-6.98-.36 6.863-5.007.176 5.367Zm-6.727-.453 6.614.34-.165-5.047Zm0 0"/><path fill="#fff" d="m106.488 102.77 3.762-8.27 3.117 3.254-.05.035Zm3.797-8.079-3.523 7.746 6.437-4.699Zm0 0"/><path fill="#fff" d="m113.273 97.816-3.09-3.23 4.77-3.273.031.015c5.036 2.516 5.016 2.598 5.004 2.652l-.011.043-.047.004c-.215.035-4.078 2.274-6.621 3.77l-.036.023Zm-2.921-3.21 2.941 3.074c1.082-.64 5.766-3.387 6.535-3.73-.45-.282-3.07-1.618-4.863-2.513Zm0 0"/><path fill="#fff" d="m119.957 94.047-5.023-2.625.05-.098 4.918 2.57 1.965-4.64.102.039Zm0 0"/><path fill="#fff" d="m119.43 81.508 2.55 7.84-.027.011-2.629-7.816Zm0 0"/><g clip-path="url(#h)"><path fill="#fff" d="m121.984 89.34 1.38-13.34.109.012-1.38 13.34Zm0 0"/></g><g clip-path="url(#i)"><path fill="#fff" d="M119.332 81.496c1.121-1.523 2.832-3.855 3.938-5.351.02-.028.074-.106.093-.13.008-.015.028-.038.035-.015-.011-.04-.054.047-.066.059l-.062.086-1.864 2.62-1.988 2.794-.09-.063Zm0 0"/></g><path fill="#fff" d="m32.906 102.715-6.152-4.88 7.023-2.241-.87 7.125Zm-5.926-4.836 5.84 4.629.828-6.762Zm0 0"/><path fill="#fff" d="m26.844 97.969-.028-.094-3.078-10.242 9.153 3.355Zm-2.938-10.16 2.985 9.937 5.812-6.71Zm0 0"/><path fill="#fff" d="m26.7 97.969 6.132-7.078.945 4.812-7.078 2.262Zm6.066-6.836-5.73 6.613 6.616-2.113Zm0 0"/><path fill="#fff" d="m33.68 95.781-.95-4.824h5.454l.035.07-.028.032Zm-.817-4.715.883 4.489 4.285-4.489Zm0 0"/><path fill="#fff" d="m32.871 91.098-9.176-3.368 7.485-4.472Zm-8.926-3.391 8.778 3.219-1.618-7.496Zm0 0"/><path fill="#fff" d="m23.715 87.848 5.258-13.903 2.234 9.422-.035.02Zm5.234-13.532-5.02 13.278 7.153-4.278-2.133-8.996Zm0 0"/><path fill="#fff" d="m32.777 91.168-1.71-7.93 4.601 2.551Zm-1.554-7.719 1.597 7.406 2.703-5.02-4.296-2.386Zm0 0"/><path fill="#fff" d="M38.125 91.066h-5.418l2.89-5.375 2.594 5.266a.07.07 0 0 1-.004.074c-.011.024-.039.035-.062.035m-5.234-.109h5.18l-2.477-5.027Zm0 0"/><path fill="#fff" d="M38.148 91.02a.08.08 0 0 1-.07-.043l-2.57-5.22h3.851l-1.132 5.2a.08.08 0 0 1-.07.063zm-2.464-5.157 2.457 4.985 1.082-4.985Zm0 0"/><path fill="#fff" d="m35.621 85.887-4.598-2.547.098-.047 7.317-3.445Zm-4.36-2.54 4.31 2.387 2.64-5.656-6.945 3.27Zm0 0"/><path fill="#fff" d="m31.105 83.422-2.226-9.406 9.558 5.953-7.332 3.449Zm-2.062-9.172 2.137 9.016 7.03-3.309Zm0 0"/><path fill="#fff" d="M39.258 85.863h-3.746l2.836-6.086.992 5.989a.08.08 0 0 1-.02.07.08.08 0 0 1-.062.027m-3.574-.105h3.543l-.926-5.613Zm0 0"/><path fill="#fff" d="m39.262 85.96-1.008-6.07 4.066.993v.043c0 .176-2.285 3.804-2.984 4.914Zm-.871-5.925.93 5.625c1.113-1.762 2.687-4.3 2.874-4.695Zm0 0"/><path fill="#fff" d="M39.332 85.832c-.016 0-.031-.004-.043-.02-.023-.023-.031-.054-.012-.085l3.012-4.946.469 1.93-3.38 3.105c-.01.012-.03.016-.046.016m2.91-4.766-2.722 4.477 3.117-2.867-.39-1.61ZM38.387 80.066l-9.625-5.996 9.191.301Zm-9.223-5.875 9.098 5.668-.41-5.382-8.688-.282Zm0 0"/><path fill="#fff" d="m42.316 80.996-.062-.02c-1.488-.394-3.754-.976-3.918-.96l-.066.023v-.07l-.43-5.598 5-.144-.528 6.765Zm-3.941-1.086c.445.05 2.75.656 3.84.945l.508-6.515-4.762.137ZM28.836 74.242l5.195-9.332 3.032 5.957-.055.024Zm5.191-9.097-4.941 8.878 7.824-3.21Zm0 0"/><path fill="#fff" d="M37.938 74.48h-.04l-9.195-.304 8.262-3.387 2.789-1.133-1.816 4.82Zm-8.723-.394 8.648.281 1.7-4.515-2.56 1.039Zm0 0"/><path fill="#fff" d="m36.96 70.91-3.1-6.097 5.906 4.957Zm-2.76-5.668 2.812 5.528 2.543-1.032Zm0 0"/><path fill="#fff" d="m37.82 74.48 1.825-4.843 3.238 4.699-5.063.148Zm1.856-4.609-1.696 4.496 4.7-.137Zm0 0"/><path fill="#fff" d="m42.2 81.055.53-6.82 8.2-.95Zm.632-6.723-.5 6.461 8.27-7.36Zm0 0"/><path fill="#fff" d="m42.8 74.41-3.218-4.672 5.43-2.945Zm-3.058-4.637 3.02 4.383 2.074-7.144Zm0 0"/><path fill="#fff" d="m42.574 74.363 8.246-5.781v4.832Zm8.137-5.57-7.723 5.414 7.723-.894Zm0 0"/><path fill="#fff" d="m42.688 74.418 2.199-7.586 6 1.836-8.203 5.75Zm2.273-7.45-2.086 7.184 7.766-5.445ZM39.672 69.836 33.89 64.98l9.543-.593-3.762 5.445Zm-5.504-4.762 5.484 4.602 3.563-5.164Zm0 0"/><path fill="#fff" d="m39.484 69.91 3.836-5.558 1.68 2.57Zm3.836-5.363-3.484 5.05 5.008-2.718Zm0 0"/><path fill="#fff" d="m33.844 65.094 6.676-4.836 2.902 4.238Zm6.648-4.684-6.277 4.55 9.008-.562Zm0 0"/><path fill="#fff" d="m44.926 67.004-1.68-2.574 4.84-2.664Zm-1.528-2.535 1.524 2.328 2.86-4.742-4.384 2.41Zm0 0"/><path fill="#fff" d="m43.305 64.523-2.922-4.27 7.703 1.634Zm-2.676-4.105 2.71 3.96 4.438-2.444-7.152-1.516Zm0 0"/><path fill="#fff" d="m44.816 66.973 3.094-5.133.047.02 6.996 3.437Zm3.137-4.993-2.922 4.848 9.57-1.582-6.648-3.262Zm0 0"/><path fill="#fff" d="m50.777 68.746-6.093-1.863 10.28-1.695Zm-5.617-1.828 5.594 1.707 3.84-3.266Zm0 0"/><path fill="#fff" d="M50.71 73.473V68.66l4.102-3.488 1.012 4.324Zm.11-4.762v4.539l4.883-3.797-.96-4.082Zm0 0"/><path fill="#fff" d="m54.836 65.363-7.117-3.496 6.953-.308Zm-6.688-3.406 6.575 3.227-.153-3.512Zm0 0"/><path fill="#fff" d="m48.094 62-7.711-1.637 3.472-2.836Zm-7.465-1.695 7.144 1.515-3.93-4.14-3.214 2.629Zm0 0"/><path fill="#fff" d="m47.82 61.969 3.953-5.184 2.942 4.875-6.899.309Zm3.946-4.989-3.72 4.872 6.481-.29Zm0 0"/><path fill="#fff" d="m47.938 61.992-4.204-4.433 8.157-.739Zm-3.973-4.347 3.96 4.18 3.727-4.876-7.683.696Zm0 0"/><path fill="#fff" d="m43.719 57.668 4.851-5.477 3.297 4.739Zm4.84-5.3-4.579 5.167 7.688-.7Zm0 0"/><path fill="#fff" d="m54.617 61.715-2.941-4.88 6.355-.398Zm-2.754-4.781 2.758 4.574 3.203-4.95-5.96.372Zm0 0"/><path fill="#fff" d="m54.73 65.383-.167-3.828 4.69.164-4.526 3.664Zm-.054-3.715.152 3.492 4.133-3.34Zm0 0"/><path fill="#fff" d="m55.73 69.574-1.023-4.37 5.176.859Zm-.882-4.234.949 4.035 3.832-3.246Zm0 0"/><path fill="#fff" d="m59.793 66.156-5.145-.851 4.43-3.582 3.324-1.844-2.613 6.277Zm-4.887-.918 4.82.793 2.458-5.91-3.047 1.691-4.23 3.422Zm0 0"/><path fill="#fff" d="M59.121 61.824h-.016l-4.582-.16 3.391-5.246 4.477 3.59Zm-4.402-.261 4.375.152 3.101-1.723-4.254-3.414Zm0 0"/><path fill="#fff" d="m59.578 66.39 2.672-6.425 5.918-3.528Zm2.758-6.35L59.94 65.8l7.707-8.925-5.308 3.164Zm0 0"/><path fill="#fff" d="m62.29 60.066-4.52-3.625 10.328.164Zm-4.204-3.507 4.21 3.375 5.419-3.227Zm0 0"/><path fill="#fff" d="m51.582 56.953 8.61-6.207-2.227 5.809Zm8.375-5.906-8.004 5.773 5.938-.375Zm0 0"/><path fill="#fff" d="m51.754 56.96-3.285-4.726 11.808-1.418Zm-3.094-4.636 3.121 4.485 8.09-5.832-11.207 1.347Zm0 0"/><path fill="#fff" d="m57.832 56.605 2.207-5.77 8.063 1.126Zm2.277-5.648-2.082 5.438 9.684-4.38Zm0 0"/><path fill="#fff" d="M67.96 56.71h-.054l-10.222-.16 10.277-4.648Zm-9.788-.26 9.68.152v-4.528ZM48.57 52.336l-.02-.11 17.153-4.41-5.621 3.133-11.508 1.387Zm16.344-4.203-15.539 3.996 10.684-1.285 4.855-2.715Zm0 0"/><path fill="#fff" d="m68.016 52.059-8.11-1.133 5.418-3.028.031.043Zm-7.774-1.196 7.555 1.055-2.508-3.875ZM69.953 60.492h-.008l-4.894-.61 2.867-3.32 2.098 3.829c.011.023.011.05-.004.07a.07.07 0 0 1-.059.031m-4.687-.691 4.613.574-1.98-3.621Zm0 0"/><path fill="#fff" d="M73.242 58.152h-.023L67.852 56.7v-4.77l5.464.571v5.578a.07.07 0 0 1-.03.059c-.013.011-.032.015-.048.015Zm-5.281-1.535 5.246 1.418v-5.437l-5.246-.551Zm0 0"/><path fill="#fff" d="M69.984 60.48h-.015q-.038-.01-.051-.039l-2.121-3.87 5.445 1.468a.07.07 0 0 1 .051.059c.008.027-.004.054-.027.074l-3.23 2.293c-.013.012-.032.015-.048.015Zm-1.968-3.738 1.98 3.617 3.14-2.234ZM73.313 52.61l-5.438-.57-.012-.024-2.656-4.102 8.617.285-.511 4.406Zm-5.376-.672 5.278.55.484-4.183-8.289-.274Zm0 0"/><path fill="#fff" d="m73.777 48.309-8.683-.29 6.992-3.511 7.46-.668Zm-8.254-.383 8.22.273 5.44-4.219-7.078.637Zm0 0"/><path fill="#fff" d="m77.703 52.867-4.5-.265.52-4.48Zm-4.379-.37 4.133.25-3.656-4.36Zm0 0"/><path fill="#fff" d="M73.277 58.133s-.015 0-.023-.004a.07.07 0 0 1-.047-.063v-5.578l4.48.266-4.359 5.351a.06.06 0 0 1-.05.028m.04-5.528v5.348l4.152-5.098-4.153-.246ZM83.043 49.18l-9.426-.887 5.762-4.465.031.047Zm-9.14-.97 8.917.84-3.468-5.062Zm0 0"/><path fill="#fff" d="m77.57 52.879-.03-.04-3.907-4.655 9.453.89Zm-3.683-4.559 3.703 4.41 5.187-3.574Zm0 0"/><path fill="#fff" d="m82.902 49.172-.02-.027-3.566-5.204.094-.062 3.55 5.184 6.095-.165.004.11Zm0 0"/><path fill="#fff" d="M85.625 51.71q-.022 0-.04-.007c-.23-.129-1.155-1.05-1.901-1.789-.36-.352-.696-.687-.77-.742l-.168.004.152-.106c.012-.008.02-.011.036-.008l6.285-.167-3.535 2.789c-.008.007-.02.02-.036.023q-.01.005-.023.004m-2.555-2.546c.118.106.317.305.688.672.68.676 1.605 1.59 1.86 1.758l3.273-2.586Zm0 0"/><path fill="#fff" d="m92.563 45.645-3.47 3.347-.077-.078Zm0 0"/><path fill="#fff" d="m79.574 43.79.012-.083 12.977 1.895-.012.082Zm0 0"/><path fill="#fff" d="m89.027 49-9.445-5.254 9.5 5.16ZM95.355 52.242 89.027 49l.055-.094Zm0 0"/><path fill="#fff" d="m85.645 51.723-.04-.032c-.02-.015-.023-.046-.011-.07l.015-.02 3.41-2.69.067.085-3.293 2.602 9.559.613v.039l.03-.05.032.062a.06.06 0 0 1-.039.054l-.02.004-9.687-.605Zm9.664.527c0 .016.007.035.02.04l.019-.028Zm.027-.035.016.039ZM95.441 52.02c-.011.011-.015.027-.004.042a7 7 0 0 0-.164-.187c-.78-.898-1.918-5.32-2.71-6.23.82.898 1.98 5.277 2.789 6.164.046.054.128.136.175.191a.08.08 0 0 1-.015.105Zm0 0"/><path fill="#fff" d="M95.379 52.293a.1.1 0 0 1-.031-.008l.043-.07s-.02-.004-.028 0l.09-.184.05.063-.089.183c-.008.008-.023.012-.035.012Zm0 0"/><path fill="#fff" d="M95.492 52.078a.06.06 0 0 1-.043-.02l.063-.054s-.016-.012-.024-.008q-.007 0-.015.012l.976-4.633-3.902-1.695.031-.075 3.98 1.73-1.011 4.708c-.008.02-.027.031-.047.035zM40.18 93.84a.72.72 0 0 1-.22.527.72.72 0 0 1-.53.219.71.71 0 0 1-.532-.219.7.7 0 0 1-.222-.527q0-.31.222-.531a.73.73 0 0 1 .532-.22q.31.001.53.22a.74.74 0 0 1 .22.53M42.707 86.598a.72.72 0 0 1-.219.53.73.73 0 0 1-.531.22.74.74 0 0 1-.531-.22.72.72 0 0 1-.219-.53.7.7 0 0 1 .219-.528.74.74 0 0 1 .531-.218c.207 0 .387.074.531.218a.7.7 0 0 1 .219.528M50.355 78.418a.72.72 0 0 1-.218.527.72.72 0 0 1-.532.223.7.7 0 0 1-.53-.223.7.7 0 0 1-.223-.527q0-.31.222-.527a.7.7 0 0 1 .531-.22.72.72 0 0 1 .532.22.72.72 0 0 1 .218.527M57.379 72.234a.7.7 0 0 1-.223.528.7.7 0 0 1-.531.218.72.72 0 0 1-.531-.218.72.72 0 0 1-.219-.528.72.72 0 0 1 .219-.527.72.72 0 0 1 .531-.223.7.7 0 0 1 .531.223q.223.217.223.527M75.582 67.246q.002.392-.277.668a.93.93 0 0 1-.672.277.93.93 0 0 1-.676-.277.9.9 0 0 1-.277-.668q0-.391.277-.672a.93.93 0 0 1 .676-.277q.392.001.672.277.279.28.277.672M83.227 61.375q.002.392-.278.668a.91.91 0 0 1-.672.277.91.91 0 0 1-.675-.277.9.9 0 0 1-.278-.668q.001-.392.278-.668a.91.91 0 0 1 .675-.277q.392-.002.672.277a.9.9 0 0 1 .278.668M90.434 58.383a.93.93 0 0 1-.278.672.93.93 0 0 1-.676.277.93.93 0 0 1-.671-.277.93.93 0 0 1-.278-.672q.001-.393.278-.668a.93.93 0 0 1 .671-.278q.397.001.676.278a.9.9 0 0 1 .278.668M106.61 64.676a.92.92 0 0 1-.282.672.92.92 0 0 1-.672.277.92.92 0 0 1-.672-.277.92.92 0 0 1-.28-.672.9.9 0 0 1 .28-.668.92.92 0 0 1 .672-.278.92.92 0 0 1 .672.278.9.9 0 0 1 .281.668M70.926 67.848a.83.83 0 0 1-.254.613.85.85 0 0 1-.617.254.84.84 0 0 1-.618-.254.83.83 0 0 1-.257-.613c0-.243.086-.446.257-.618a.84.84 0 0 1 .618-.253.85.85 0 0 1 .617.253.83.83 0 0 1 .254.618M66.27 74.703a.74.74 0 0 1-.22.531.74.74 0 0 1-.53.22.73.73 0 0 1-.532-.22.72.72 0 0 1-.222-.53c0-.204.074-.384.222-.528a.73.73 0 0 1 .532-.219q.31 0 .53.219a.73.73 0 0 1 .22.527M62 67.848a.72.72 0 0 1-.219.527.74.74 0 0 1-.531.219.74.74 0 0 1-.535-.219.72.72 0 0 1-.219-.527q0-.31.219-.532a.74.74 0 0 1 .535-.218q.31.001.531.218a.74.74 0 0 1 .219.532M72.324 61.934a.72.72 0 0 1-.219.527.72.72 0 0 1-.53.219.72.72 0 0 1-.536-.22.72.72 0 0 1-.219-.526.72.72 0 0 1 .22-.528.73.73 0 0 1 .534-.222q.31 0 .531.222a.72.72 0 0 1 .22.528M78.879 57.328c0 .18-.063.328-.192.453a.61.61 0 0 1-.453.188.62.62 0 0 1-.453-.188.61.61 0 0 1-.187-.453q0-.266.187-.45a.62.62 0 0 1 .453-.187q.268 0 .454.188a.6.6 0 0 1 .19.45M89.602 48.926q.001.187-.133.316a.42.42 0 0 1-.317.133.43.43 0 0 1-.32-.133.43.43 0 0 1-.129-.316.45.45 0 0 1 .766-.316q.134.127.133.316M84.277 55.328a.634.634 0 0 1-.645.637.63.63 0 0 1-.64-.637.62.62 0 0 1 .188-.453.62.62 0 0 1 .453-.187q.27 0 .457.187a.62.62 0 0 1 .187.453M96.832 57.078a.62.62 0 0 1-.187.453.62.62 0 0 1-.454.188.62.62 0 0 1-.457-.188.62.62 0 0 1-.187-.453.62.62 0 0 1 .187-.453.62.62 0 0 1 .457-.187.62.62 0 0 1 .454.187.62.62 0 0 1 .187.453m0 0"/><path fill="#fff" d="M96.059 52.215a.62.62 0 0 1-.192.453.62.62 0 0 1-.453.187.62.62 0 0 1-.453-.187.6.6 0 0 1-.191-.453q-.001-.265.19-.453a.62.62 0 0 1 .454-.188.62.62 0 0 1 .453.188.62.62 0 0 1 .192.453M103.66 54.938q0 .315-.222.539a.75.75 0 0 1-.543.222.75.75 0 0 1-.543-.222.73.73 0 0 1-.223-.54q0-.315.223-.539a.74.74 0 0 1 .543-.226q.314-.001.543.226a.73.73 0 0 1 .222.54M107.102 51.504a.4.4 0 0 1-.125.297.4.4 0 0 1-.297.125.41.41 0 0 1-.301-.125.4.4 0 0 1-.121-.297.41.41 0 0 1 .422-.418.4.4 0 0 1 .297.121.4.4 0 0 1 .125.297M109.59 59.313q0 .204-.149.351a.48.48 0 0 1-.351.145.49.49 0 0 1-.356-.145.48.48 0 0 1-.144-.352q0-.204.144-.351a.49.49 0 0 1 .356-.145q.206-.001.351.145a.48.48 0 0 1 .149.352M66.48 80.656a.72.72 0 0 1-.218.531.74.74 0 0 1-.532.22.73.73 0 0 1-.53-.22.72.72 0 0 1-.22-.53.7.7 0 0 1 .22-.528.73.73 0 0 1 .53-.219q.31 0 .532.219a.7.7 0 0 1 .218.527M60.191 83.316q.002.31-.218.528a.71.71 0 0 1-.532.219.72.72 0 0 1-.53-.22.72.72 0 0 1-.22-.527.72.72 0 0 1 .22-.527.72.72 0 0 1 .53-.219c.207 0 .387.07.532.22q.22.216.218.526M63.203 89.41a.74.74 0 0 1-.219.531.74.74 0 0 1-.53.22.72.72 0 0 1-.532-.22.72.72 0 0 1-.223-.53c0-.204.074-.384.223-.528a.72.72 0 0 1 .531-.219q.31 0 .531.219a.73.73 0 0 1 .22.527M74.512 78.21a.74.74 0 0 1-.219.532.74.74 0 0 1-.531.219.72.72 0 0 1-.532-.219.72.72 0 0 1-.222-.531q0-.31.222-.527a.7.7 0 0 1 .532-.22.72.72 0 0 1 .531.22.72.72 0 0 1 .219.527M77.148 71.902a.7.7 0 0 1-.222.528.71.71 0 0 1-.531.218.72.72 0 0 1-.532-.218.72.72 0 0 1-.218-.528q.001-.31.218-.53a.74.74 0 0 1 .532-.22q.312.001.53.22a.72.72 0 0 1 .223.53M86.73 72.508a.72.72 0 0 1-.218.531.74.74 0 0 1-.532.219.73.73 0 0 1-.53-.219.72.72 0 0 1-.22-.531c0-.207.07-.383.22-.528a.73.73 0 0 1 .53-.218q.31.001.532.218.22.217.218.528M86.219 68.34a.72.72 0 0 1-.223.527.71.71 0 0 1-.531.219.72.72 0 0 1-.531-.219.72.72 0 0 1-.22-.527.72.72 0 0 1 .22-.528.72.72 0 0 1 .53-.218c.208 0 .388.07.532.219.149.144.219.32.223.527M94.07 65.816a.72.72 0 0 1-.218.528.72.72 0 0 1-.532.219.71.71 0 0 1-.53-.22.7.7 0 0 1-.224-.527q0-.31.223-.53a.73.73 0 0 1 .531-.22q.31.001.532.22a.74.74 0 0 1 .218.53M102.656 73.848a.84.84 0 0 1-.261.625.86.86 0 0 1-.63.257.86.86 0 0 1-.624-.257.84.84 0 0 1-.262-.625q-.001-.368.262-.625a.86.86 0 0 1 .625-.262c.246 0 .457.09.629.262a.84.84 0 0 1 .261.625M117.012 75.11a.86.86 0 0 1-.258.624.87.87 0 0 1-.629.258.86.86 0 0 1-.629-.258.84.84 0 0 1-.262-.625q-.001-.368.262-.625a.86.86 0 0 1 .629-.261c.242 0 .453.09.629.261a.85.85 0 0 1 .258.625m0 0"/><g clip-path="url(#j)"><path fill="#fff" d="M123.887 76.05a.57.57 0 0 1-.176.423.57.57 0 0 1-.422.175.58.58 0 0 1-.426-.175.57.57 0 0 1-.175-.422q0-.246.175-.422a.6.6 0 0 1 .426-.172q.246.001.422.172a.57.57 0 0 1 .176.422m0 0"/></g><path fill="#fff" d="M79.887 88.434a.72.72 0 0 1-.219.527.74.74 0 0 1-.531.219.72.72 0 0 1-.532-.22.7.7 0 0 1-.222-.526q0-.31.222-.532a.72.72 0 0 1 .532-.218q.31.001.531.218a.74.74 0 0 1 .219.532M83.703 81.574c0 .207-.07.383-.219.528a.71.71 0 0 1-.53.218.72.72 0 0 1-.532-.218.7.7 0 0 1-.219-.528c0-.207.07-.383.219-.527a.72.72 0 0 1 .531-.219c.207 0 .387.07.531.219q.222.216.22.527M38.254 101.586a.72.72 0 0 1-.219.531.74.74 0 0 1-.531.219.74.74 0 0 1-.531-.219.72.72 0 0 1-.22-.531.7.7 0 0 1 .22-.527.74.74 0 0 1 .53-.22q.311.001.532.22a.7.7 0 0 1 .219.527M24.813 88.063q0 .362-.258.624a.86.86 0 0 1-.63.258.86.86 0 0 1-.628-.257.87.87 0 0 1-.262-.626q.002-.367.262-.628a.86.86 0 0 1 .629-.258c.246 0 .453.086.629.258a.86.86 0 0 1 .258.629M33.684 91.078a.78.78 0 0 1-.239.578.8.8 0 0 1-.582.239.8.8 0 0 1-.582-.239.78.78 0 0 1-.238-.578q-.001-.339.238-.578a.8.8 0 0 1 .582-.238q.341-.001.582.238.24.24.239.578M45.57 110.04q0 .244-.172.413a.58.58 0 0 1-.418.172.58.58 0 0 1-.414-.172.56.56 0 0 1-.171-.414q0-.24.171-.414a.57.57 0 0 1 .414-.168c.165 0 .301.055.418.168a.58.58 0 0 1 .172.414M49.91 105.86q.002.242-.172.413a.57.57 0 0 1-.414.172.58.58 0 0 1-.418-.172.57.57 0 0 1-.172-.414q.001-.242.172-.414a.58.58 0 0 1 .418-.172c.16 0 .301.059.414.172a.56.56 0 0 1 .172.414M52.465 88.418c0 .18-.063.328-.188.453a.62.62 0 0 1-.457.188.62.62 0 0 1-.453-.188.61.61 0 0 1-.187-.453.6.6 0 0 1 .187-.45.62.62 0 0 1 .453-.187q.27 0 .457.188a.6.6 0 0 1 .188.449M41.04 105.86q.001.242-.173.413a.57.57 0 0 1-.414.172.56.56 0 0 1-.414-.172.56.56 0 0 1-.176-.414q0-.242.176-.414a.56.56 0 0 1 .414-.172q.241.001.414.172a.56.56 0 0 1 .172.414M44.98 101.246c0 .16-.054.3-.171.414a.56.56 0 0 1-.414.172.57.57 0 0 1-.415-.172.56.56 0 0 1-.171-.414c0-.16.054-.3.171-.414a.57.57 0 0 1 .415-.172q.245.001.414.172a.56.56 0 0 1 .171.414M27.453 97.86a.56.56 0 0 1-.172.413.57.57 0 0 1-.414.168.56.56 0 0 1-.414-.168.56.56 0 0 1-.176-.414q0-.245.176-.414a.56.56 0 0 1 .414-.172c.16 0 .301.059.414.172q.174.17.172.414M34.3 95.668q0 .242-.171.414a.58.58 0 0 1-.418.172.57.57 0 0 1-.414-.172.57.57 0 0 1-.172-.414q.001-.24.172-.414a.57.57 0 0 1 .414-.168c.164 0 .3.055.418.168a.58.58 0 0 1 .172.414M36.29 85.813q-.002.239-.173.414a.57.57 0 0 1-.414.168.57.57 0 0 1-.418-.168.58.58 0 0 1-.172-.415q.001-.242.172-.414a.58.58 0 0 1 .418-.171q.241 0 .414.171a.57.57 0 0 1 .172.415M31.621 83.523a.4.4 0 0 1-.129.305.4.4 0 0 1-.305.125.41.41 0 0 1-.304-.125.42.42 0 0 1-.125-.305q.001-.176.125-.3a.41.41 0 0 1 .305-.125.4.4 0 0 1 .304.125.4.4 0 0 1 .13.3M42.7 80.938a.4.4 0 0 1-.13.304.42.42 0 0 1-.304.125.428.428 0 0 1-.305-.73.42.42 0 0 1 .305-.13q.18 0 .304.13a.4.4 0 0 1 .13.3M39.188 79.965a.75.75 0 0 1-.231.547.76.76 0 0 1-.55.226.75.75 0 0 1-.548-.226.75.75 0 0 1-.23-.547q.001-.323.23-.55a.75.75 0 0 1 .547-.228c.215 0 .399.079.551.227q.229.228.23.55M37.445 70.84a.74.74 0 0 1-.23.547.73.73 0 0 1-.547.226.75.75 0 0 1-.55-.226.74.74 0 0 1-.231-.547.75.75 0 0 1 .23-.547.75.75 0 0 1 .551-.227q.323 0 .547.227a.75.75 0 0 1 .23.547M34.809 65.27a.75.75 0 0 1-.23.55.76.76 0 0 1-.552.227.76.76 0 0 1-.55-.227.76.76 0 0 1-.227-.55q.002-.318.227-.547a.76.76 0 0 1 .55-.227q.323.002.551.227a.75.75 0 0 1 .23.547M40.48 69.754q.002.373-.261.637a.88.88 0 0 1-.64.261.86.86 0 0 1-.638-.261.87.87 0 0 1-.265-.637q.001-.369.265-.633a.86.86 0 0 1 .637-.262q.373-.001.64.262a.86.86 0 0 1 .262.633M55.75 65.305a.86.86 0 0 1-.262.632.87.87 0 0 1-.64.262.87.87 0 0 1-.637-.261.87.87 0 0 1-.266-.633q.001-.374.266-.637a.87.87 0 0 1 .637-.262q.376-.001.64.262a.86.86 0 0 1 .262.637M29.988 74.031a.75.75 0 0 1-.23.551.76.76 0 0 1-.551.227.75.75 0 0 1-.547-.227.75.75 0 0 1-.23-.55.75.75 0 0 1 .23-.548.75.75 0 0 1 .547-.226c.215 0 .398.078.55.226a.75.75 0 0 1 .231.547M44.348 64.352a.74.74 0 0 1-.227.546.75.75 0 0 1-.55.227.75.75 0 0 1-.551-.227.74.74 0 0 1-.227-.546q-.001-.324.227-.547a.75.75 0 0 1 .55-.227q.323-.001.551.227a.73.73 0 0 1 .227.547M60.71 50.895a.6.6 0 0 1-.187.449.62.62 0 0 1-.449.183.62.62 0 0 1-.449-.183.6.6 0 0 1-.184-.45q-.002-.257.184-.445a.6.6 0 0 1 .45-.183c.175 0 .323.058.448.183a.6.6 0 0 1 .188.446M58.71 56.719q-.001.298-.214.515a.72.72 0 0 1-.52.211.7.7 0 0 1-.515-.21.7.7 0 0 1-.215-.516.7.7 0 0 1 .215-.516.7.7 0 0 1 .516-.215.72.72 0 0 1 .52.215c.14.14.214.313.214.516M52.285 56.969a.6.6 0 0 1-.183.441.6.6 0 0 1-.442.18.6.6 0 0 1-.437-.18.6.6 0 0 1-.184-.441c0-.168.059-.317.184-.438a.6.6 0 0 1 .437-.18c.176 0 .32.06.442.18.125.121.183.27.183.438M41.129 60.441a.59.59 0 0 1-.184.438.6.6 0 0 1-.437.18.6.6 0 0 1-.442-.18.59.59 0 0 1-.183-.438.6.6 0 0 1 .183-.441.6.6 0 0 1 .442-.18q.257 0 .437.18a.6.6 0 0 1 .184.441M68.543 56.5a.6.6 0 0 1-.188.445.6.6 0 0 1-.449.188.6.6 0 0 1-.449-.188.6.6 0 0 1-.187-.445q0-.264.187-.445a.6.6 0 0 1 .45-.188.6.6 0 0 1 .448.188q.188.181.188.445M66.047 61.84c0 .097-.031.18-.102.25a.35.35 0 0 1-.254.105.34.34 0 0 1-.254-.105.34.34 0 0 1-.105-.25q0-.151.106-.254a.34.34 0 0 1 .253-.106q.148 0 .254.106.103.103.102.254M68.637 52.082c0 .2-.075.371-.215.512a.7.7 0 0 1-.516.21q-.298 0-.515-.21a.7.7 0 0 1-.211-.512c0-.203.07-.371.21-.516a.71.71 0 0 1 .516-.21q.304 0 .516.21c.14.145.215.313.215.516M74.137 52.309a.84.84 0 0 1-.258.617.84.84 0 0 1-.617.254.85.85 0 0 1-.617-.254.83.83 0 0 1-.254-.617c0-.239.082-.446.254-.614a.85.85 0 0 1 .617-.254q.364.001.617.254a.83.83 0 0 1 .258.614m0 0"/><g clip-path="url(#k)"><path fill="#fff" d="M80.477 43.746c0 .246-.09.457-.262.629a.86.86 0 0 1-.633.262.85.85 0 0 1-.629-.262.85.85 0 0 1-.262-.629c0-.242.086-.453.262-.625a.85.85 0 0 1 .629-.262q.369-.001.633.262a.86.86 0 0 1 .262.625m0 0"/></g><path fill="#fff" d="M93.527 46a.77.77 0 0 1-.238.563.77.77 0 0 1-.566.238.77.77 0 0 1-.57-.239.77.77 0 0 1-.239-.562q.002-.333.238-.566a.78.78 0 0 1 .57-.235q.33 0 .567.235a.77.77 0 0 1 .238.566M96.926 47.316a.464.464 0 0 1-.469.47.464.464 0 0 1-.469-.47q.001-.193.137-.328a.45.45 0 0 1 .332-.136q.195-.002.332.136.136.136.137.328M100.902 50.914a.45.45 0 0 1-.136.328.44.44 0 0 1-.332.137.45.45 0 0 1-.332-.137.45.45 0 0 1-.137-.328.464.464 0 0 1 .469-.469q.195.001.332.137.136.14.136.332M78.324 53.004q-.002.3-.215.512a.7.7 0 0 1-.515.214q-.3.001-.516-.214a.7.7 0 0 1-.215-.512c0-.2.075-.371.215-.512a.71.71 0 0 1 .516-.21c.203 0 .37.07.515.21q.213.212.215.512M74.863 47.973q-.001.375-.265.644a.9.9 0 0 1-.649.266.9.9 0 0 1-.648-.266.88.88 0 0 1-.266-.644q-.002-.382.266-.645a.88.88 0 0 1 .648-.266c.254 0 .469.086.649.266q.264.263.265.645M83.523 49.117q.001.3-.214.512a.7.7 0 0 1-.512.21.7.7 0 0 1-.516-.21.69.69 0 0 1-.215-.512c0-.203.07-.37.215-.515q.21-.211.516-.211.3 0 .512.21a.7.7 0 0 1 .214.516M86.07 51.71q0 .188-.132.321a.43.43 0 0 1-.32.133.43.43 0 0 1-.321-.133.43.43 0 0 1-.133-.32q-.001-.187.133-.316a.43.43 0 0 1 .32-.133c.125 0 .235.043.32.133q.134.127.133.316M45.992 67.102a.74.74 0 0 1-.23.546.73.73 0 0 1-.547.227.75.75 0 0 1-.55-.227.74.74 0 0 1-.231-.546q.001-.32.23-.547a.75.75 0 0 1 .55-.227q.325-.001.548.227.229.226.23.547M43.426 74.219a.7.7 0 0 1-.207.5.7.7 0 0 1-.504.207.7.7 0 0 1-.504-.207.7.7 0 0 1-.207-.5c0-.2.07-.364.207-.504a.7.7 0 0 1 .504-.207.7.7 0 0 1 .504.207c.136.14.207.305.207.504M51.305 73.063q-.001.258-.184.44a.6.6 0 0 1-.441.184.6.6 0 0 1-.442-.183.6.6 0 0 1-.183-.442c0-.171.058-.316.183-.44a.6.6 0 0 1 .442-.18q.259-.001.441.18.183.185.184.44M56.39 69.316q0 .258-.183.442a.6.6 0 0 1-.441.183.61.61 0 0 1-.446-.183.6.6 0 0 1-.18-.442q0-.255.18-.441a.6.6 0 0 1 .446-.18q.259 0 .441.18.183.186.184.441M60.176 66.094a.35.35 0 0 1-.114.27.37.37 0 0 1-.269.113.37.37 0 0 1-.27-.114.35.35 0 0 1-.113-.27c0-.105.035-.195.113-.269a.37.37 0 0 1 .27-.11q.157 0 .27.11a.35.35 0 0 1 .113.27M44.32 92.547q0 .212-.152.36a.5.5 0 0 1-.36.148.508.508 0 1 1 0-1.016q.212 0 .36.148a.48.48 0 0 1 .152.36M49.094 96.824q0 .212-.153.36a.5.5 0 0 1-.359.148.508.508 0 1 1 0-1.016q.212.001.36.149a.48.48 0 0 1 .152.36M54.305 99.258q0 .212-.153.36a.48.48 0 0 1-.359.148.5.5 0 0 1-.363-.149.5.5 0 0 1-.149-.36q.001-.208.149-.359a.5.5 0 0 1 .363-.148q.212 0 .36.148a.49.49 0 0 1 .152.36M58.805 94.348q0 .211-.153.359a.48.48 0 0 1-.359.148.5.5 0 0 1-.363-.148.5.5 0 0 1-.149-.36q.001-.211.149-.359a.5.5 0 0 1 .363-.148q.212 0 .36.148a.48.48 0 0 1 .152.36M69.566 87.793a.475.475 0 0 1-.48.477.46.46 0 0 1-.34-.137.46.46 0 0 1-.14-.34q0-.2.14-.34a.48.48 0 0 1 .34-.137.475.475 0 0 1 .48.477M77.941 85.629a.46.46 0 0 1-.14.34.46.46 0 0 1-.34.14.46.46 0 0 1-.34-.14.46.46 0 0 1-.14-.34c0-.133.046-.242.14-.336a.46.46 0 0 1 .34-.14q.2 0 .34.14c.094.094.14.203.14.336M91.195 87.02a.59.59 0 0 1-.746.566.3.3 0 0 1-.101-.04.58.58 0 0 1-.336-.526.59.59 0 0 1 .863-.524.572.572 0 0 1 .305.379c.004.035.011.074.011.11a.1.1 0 0 1 .004.035M98.43 81.414q.001.04-.004.074a.585.585 0 0 1-.512.512q-.036.005-.074.004a.57.57 0 0 1-.383-.14.576.576 0 0 1-.125-.75.58.58 0 0 1 .508-.286c.328 0 .59.262.59.586M109.121 89.34a.57.57 0 0 1-.172.418.58.58 0 0 1-.418.172.57.57 0 0 1-.418-.172.56.56 0 0 1-.175-.418q0-.242.175-.414a.57.57 0 0 1 .418-.172q.244 0 .418.172a.57.57 0 0 1 .172.414M112.543 83.098q0 .242-.176.414a.56.56 0 0 1-.418.172.57.57 0 0 1-.418-.172.57.57 0 0 1-.172-.414q.001-.244.172-.418a.59.59 0 0 1 .418-.172q.247 0 .418.172a.57.57 0 0 1 .176.418M120.355 81.414a.76.76 0 0 1-.23.555.75.75 0 0 1-.555.226.75.75 0 0 1-.554-.226.75.75 0 0 1-.23-.555c0-.215.073-.398.23-.55a.76.76 0 0 1 .554-.231q.329.001.555.23.229.229.23.551M115.55 91.375q0 .242-.171.414a.56.56 0 0 1-.418.172.56.56 0 0 1-.418-.172.56.56 0 0 1-.176-.414c0-.164.059-.3.176-.418a.57.57 0 0 1 .418-.172c.164 0 .3.059.418.172a.58.58 0 0 1 .172.418M110.86 94.71q-.001.243-.176.415a.56.56 0 0 1-.418.172.56.56 0 0 1-.418-.172.57.57 0 0 1-.172-.414c0-.164.058-.3.172-.418a.58.58 0 0 1 .418-.172q.247.001.418.172a.57.57 0 0 1 .175.418M114.043 102.953a.585.585 0 0 1-.59.59.57.57 0 0 1-.418-.172.57.57 0 0 1-.176-.418q0-.242.176-.414a.56.56 0 0 1 .418-.172q.24-.002.418.172a.57.57 0 0 1 .172.414M120.527 93.824a.57.57 0 0 1-.172.418.58.58 0 0 1-.418.172.57.57 0 0 1-.417-.172.56.56 0 0 1-.176-.418q0-.242.176-.414a.57.57 0 0 1 .418-.172c.164 0 .3.059.417.172a.57.57 0 0 1 .172.414M122.45 89.203q-.002.245-.173.414a.57.57 0 0 1-.418.176.56.56 0 0 1-.418-.176.55.55 0 0 1-.171-.414c0-.164.054-.3.171-.418a.57.57 0 0 1 .418-.172q.244.001.418.172a.58.58 0 0 1 .172.418M105.602 94.27q.002.242-.172.414a.56.56 0 0 1-.418.171.56.56 0 0 1-.418-.171.56.56 0 0 1-.172-.414c0-.165.055-.301.172-.418a.57.57 0 0 1 .418-.172c.164 0 .3.058.418.172a.56.56 0 0 1 .172.418M98.867 96.977q0 .241-.172.414a.56.56 0 0 1-.418.171.56.56 0 0 1-.418-.171.56.56 0 0 1-.175-.414c0-.165.058-.301.175-.418a.57.57 0 0 1 .418-.172q.244 0 .418.172a.58.58 0 0 1 .172.418M89.035 91.629c0 .164-.058.3-.172.418a.58.58 0 0 1-.418.172.57.57 0 0 1-.418-.172.57.57 0 0 1-.175-.418q0-.242.175-.414a.56.56 0 0 1 .418-.172q.244-.002.418.172a.57.57 0 0 1 .172.414m0 0"/><path fill="#3de2e5" d="M98.484 85.238a.59.59 0 0 0-.507.485l-6.797 1.152s-.004-.008-.004-.012l6.281-5a.57.57 0 0 0 .383.14q.036 0 .074-.003Zm0 0"/><path fill="#040053" fill-opacity=".56" d="M98.484 85.238a.59.59 0 0 0-.507.485l-6.797 1.152s-.004-.008-.004-.012l6.281-5a.57.57 0 0 0 .383.14q.036 0 .074-.003Zm0 0"/><path fill="#fff" d="M99.148 85.824a.586.586 0 0 1-.59.586.59.59 0 0 1-.593-.578v-.008q0-.053.012-.101a.59.59 0 0 1 .507-.485q.034-.005.075-.004c.171 0 .328.075.433.192a.57.57 0 0 1 .156.398M107.344 102.602c0 .164-.059.3-.172.418a.58.58 0 0 1-.418.171.57.57 0 0 1-.418-.171.57.57 0 0 1-.176-.418c0-.16.059-.301.176-.415a.56.56 0 0 1 .418-.171c.164 0 .3.054.418.171a.57.57 0 0 1 .172.415M113.82 97.969a.7.7 0 0 1-.207.504.7.7 0 0 1-.508.207.7.7 0 0 1-.503-.207.69.69 0 0 1-.211-.504q0-.294.21-.504a.7.7 0 0 1 .504-.207q.299 0 .508.207a.7.7 0 0 1 .207.504M98.645 106.387q-.002.242-.172.414a.58.58 0 0 1-.418.172.57.57 0 0 1-.418-.172.56.56 0 0 1-.176-.414.56.56 0 0 1 .176-.418.57.57 0 0 1 .418-.172c.164 0 .3.058.418.172a.57.57 0 0 1 .172.418M92.98 111.102c0 .16-.054.3-.171.414a.56.56 0 0 1-.418.171.56.56 0 0 1-.418-.171.56.56 0 0 1-.172-.414c0-.165.054-.301.172-.418a.58.58 0 0 1 .418-.172q.247 0 .418.172a.56.56 0 0 1 .171.418M95.145 118.41a.87.87 0 0 1-.274.649.9.9 0 0 1-.652.27.9.9 0 0 1-.656-.27.88.88 0 0 1-.27-.649.9.9 0 0 1 .27-.652.9.9 0 0 1 .656-.27.9.9 0 0 1 .652.27.88.88 0 0 1 .274.652M85.41 110.379q0 .242-.172.414a.57.57 0 0 1-.418.172.56.56 0 0 1-.418-.172.56.56 0 0 1-.175-.414c0-.164.058-.3.175-.418a.57.57 0 0 1 .418-.172.585.585 0 0 1 .59.59M68.55 114.738q0 .244-.171.418a.58.58 0 0 1-.418.172.57.57 0 0 1-.418-.172.57.57 0 0 1-.176-.418q0-.244.176-.414a.56.56 0 0 1 .418-.176c.164 0 .3.059.418.176q.17.17.172.414M75.55 107.73a.67.67 0 0 1-.202.493.69.69 0 0 1-.496.203.69.69 0 0 1-.493-.203.67.67 0 0 1-.203-.493.67.67 0 0 1 .203-.492.69.69 0 0 1 .493-.203q.291.002.496.203a.67.67 0 0 1 .203.492M80.133 101.496q-.002.288-.203.492a.67.67 0 0 1-.496.203.67.67 0 0 1-.493-.203.67.67 0 0 1-.207-.492q0-.287.207-.492a.69.69 0 0 1 .493-.203q.291.002.496.203c.132.137.203.3.203.492M70.219 95.617q-.002.288-.203.492a.7.7 0 0 1-.496.204.69.69 0 0 1-.493-.204.67.67 0 0 1-.207-.492q0-.287.207-.492a.69.69 0 0 1 .493-.203.694.694 0 0 1 .699.695M92.313 98.629q0 .287-.208.492a.69.69 0 0 1-.492.203.69.69 0 0 1-.496-.203.69.69 0 0 1-.203-.492q.002-.288.203-.492a.69.69 0 0 1 .496-.203q.288.002.492.203.206.204.207.492M96.074 91.977a.8.8 0 0 1-.238.574.8.8 0 0 1-.582.238.8.8 0 0 1-.578-.238.78.78 0 0 1-.239-.574q0-.339.239-.579a.8.8 0 0 1 .578-.238q.34.002.582.238a.8.8 0 0 1 .238.579M67.883 103.023a.67.67 0 0 1-.203.493.67.67 0 0 1-.496.203.67.67 0 0 1-.493-.203.67.67 0 0 1-.203-.493.67.67 0 0 1 .203-.492.69.69 0 0 1 .493-.203q.291.002.496.203a.67.67 0 0 1 .203.492M79.945 115.805q0 .287-.207.492a.67.67 0 0 1-.492.203.68.68 0 0 1-.496-.203.69.69 0 0 1-.203-.492q.002-.288.203-.493a.7.7 0 0 1 .496-.203q.288.001.492.204.206.204.207.492M94.504 77.973q-.001.244-.172.414a.57.57 0 0 1-.418.175.56.56 0 0 1-.418-.175.55.55 0 0 1-.176-.414q0-.244.176-.418a.57.57 0 0 1 .418-.172.585.585 0 0 1 .59.59M97.238 73.258c0 .164-.058.3-.175.418a.57.57 0 0 1-.418.172.585.585 0 0 1-.59-.59c0-.16.058-.301.172-.414a.57.57 0 0 1 .418-.172q.246-.002.418.172a.56.56 0 0 1 .175.414M103.324 69.09c0 .16-.054.3-.172.414a.56.56 0 0 1-.418.172.56.56 0 0 1-.418-.172.56.56 0 0 1-.171-.414c0-.164.054-.3.171-.418a.57.57 0 0 1 .418-.172q.244.001.418.172a.56.56 0 0 1 .172.418M97.238 62.54q0 .243-.175.417a.57.57 0 0 1-.418.172.585.585 0 0 1-.59-.59q0-.241.172-.414a.57.57 0 0 1 .418-.172q.246-.002.418.172a.56.56 0 0 1 .175.414M112.121 68.191c0 .16-.058.301-.176.414a.57.57 0 0 1-.418.172.585.585 0 0 1-.59-.586.585.585 0 0 1 .59-.59c.164 0 .305.06.418.172a.57.57 0 0 1 .176.418M120.516 62.313c0 .164-.059.3-.172.417a.58.58 0 0 1-.418.172.57.57 0 0 1-.418-.172.57.57 0 0 1-.176-.417q0-.246.176-.415a.56.56 0 0 1 .418-.175c.164 0 .3.058.418.175q.17.17.172.414M80.668 78.96a.46.46 0 0 1-.14.34.46.46 0 0 1-.34.138.46.46 0 0 1-.34-.137.46.46 0 0 1-.141-.34q0-.2.14-.34a.48.48 0 0 1 .34-.137.475.475 0 0 1 .481.477M57.738 107.602a.4.4 0 0 1-.125.296.41.41 0 0 1-.3.125.4.4 0 0 1-.297-.125.4.4 0 0 1-.125-.296.4.4 0 0 1 .125-.297.4.4 0 0 1 .297-.125q.176.001.3.125.124.122.125.297M60.867 101.586a.416.416 0 0 1-.422.422.4.4 0 0 1-.3-.121.4.4 0 0 1-.122-.301c0-.113.04-.215.122-.297a.4.4 0 0 1 .3-.121.416.416 0 0 1 .422.418M59.902 66.137l-.062-.086 5.805-4.274 4.304-1.414.031.102-4.289 1.41Zm0 0"/><g clip-path="url(#l)"><path fill="#fff" d="m123.363 76.027-3.55-13.691-13.165-10.793-10.207-4.18.036-.09 10.234 4.196 13.18 10.816 3.55 13.688Zm0 0"/></g><path fill="#fff" d="m77.586 52.96 8.023-1.292.016.094-8.023 1.293Zm0 0"/><path fill="#040053" d="M203.055 80.746c1.145 0 2.118-.398 2.922-1.203q1.202-1.201 1.203-2.906v-4.735q0-1.686-1.203-2.89-1.205-1.202-2.922-1.203h-7.187q-1.706 0-2.906 1.203-1.206 1.204-1.204 2.89v4.735q-.002 1.704 1.204 2.906c.8.805 1.77 1.203 2.906 1.203Zm0-2.062h-7.187a2.02 2.02 0 0 1-1.469-.594 2 2 0 0 1-.594-1.453v-4.735q-.002-.841.594-1.437a2 2 0 0 1 1.469-.61h7.187q.856 0 1.453.61.61.595.61 1.437v4.735q0 .843-.61 1.453a1.98 1.98 0 0 1-1.453.594M221.751 80.746h-9.25a2.97 2.97 0 0 1-2.187-.906 3 3 0 0 1-.891-2.188h2.047q-.001.441.297.735.311.298.734.297h9.25q.421 0 .719-.297a.97.97 0 0 0 .312-.735V76.34a.98.98 0 0 0-.312-.735 1 1 0 0 0-.719-.296h-9.25a2.97 2.97 0 0 1-2.187-.907 3 3 0 0 1-.891-2.187v-1.328q0-1.28.89-2.172a2.99 2.99 0 0 1 2.188-.906h9.25q1.279.001 2.188.906c.601.594.906 1.32.906 2.172h-2.063a.98.98 0 0 0-.312-.735 1 1 0 0 0-.719-.297h-9.25a1.04 1.04 0 0 0-.734.297q-.298.3-.297.735v1.328q-.001.423.297.734.311.299.734.297h9.25c.852 0 1.582.305 2.188.906.601.606.906 1.336.906 2.188v1.312c0 .856-.305 1.586-.906 2.188a2.98 2.98 0 0 1-2.188.906M242.54 80.746h-2.062v-5.453h-10.89v5.453h-2.048V67.809h2.047v5.437h10.891v-5.437h2.062ZM253.989 80.746h-1.094l-8.75-12.937h2.485l6.812 10.078 6.813-10.078h2.515ZM281.448 80.746h-2.5l-1.89-2.812h-9.83l-1.905 2.812h-2.485l8.766-12.937h1.094Zm-5.782-4.86-3.53-5.218-3.532 5.219ZM298.482 80.746h-1.406l-11.969-9.75v9.75h-2.047V67.809h1.375l11.985 9.75v-9.75h2.062ZM317.049 80.746h-2.063v-3.781q0-.67-.468-1.156a1.68 1.68 0 0 0-1.157-.516l-.047.016h-9.64v5.437h-2.047V67.793h2.047v5.453h9.687q.687-.03 1.157-.516.468-.481.468-1.156v-3.781h2.063v3.781q-.001 1.595-1.156 2.703 1.156 1.094 1.156 2.688ZM200.471 111.037h-4.578a1.38 1.38 0 0 1-1-.406 1.38 1.38 0 0 1-.406-1h.766c0 .18.062.328.187.453a.61.61 0 0 0 .453.188h4.578a.62.62 0 0 0 .454-.188.61.61 0 0 0 .187-.453v-.656a.62.62 0 0 0-.187-.453.62.62 0 0 0-.454-.188h-4.578a1.38 1.38 0 0 1-1-.406 1.33 1.33 0 0 1-.406-.984v-.672q-.002-.574.406-.985.422-.406 1-.406h4.578q.591.001 1 .406.406.41.407.985h-.766a.6.6 0 0 0-.187-.438.62.62 0 0 0-.454-.187h-4.578a.61.61 0 0 0-.453.187.6.6 0 0 0-.187.438v.672a.613.613 0 0 0 .64.625h4.578q.591 0 1 .421.406.41.407.985v.656q-.001.58-.407 1a1.36 1.36 0 0 1-1 .406M210.38 111.037h-7v-6.156h7v.75h-6.235v1.938h5.516v.765h-5.516v1.938h6.234ZM219.276 111.037h-.765v-1.672a.62.62 0 0 0-.188-.453.62.62 0 0 0-.453-.187h-5.219v2.312h-.765v-6.156h5.984q.574.001.984.406.422.41.422.985v1.047q-.002.61-.437 1.015.435.422.437 1.031Zm-1.406-3.078a.62.62 0 0 0 .453-.187.61.61 0 0 0 .188-.453v-1.047a.6.6 0 0 0-.188-.438.62.62 0 0 0-.453-.187h-5.219v2.312ZM224.618 111.037h-.406l-4.172-6.156h.922l3.453 5.094 3.437-5.094h.922ZM230.527 111.037v-6.156h-.766v6.156ZM237.509 111.037q.78 0 1.343-.562a1.83 1.83 0 0 0 .563-1.344h-.766q-.002.471-.344.813a1.09 1.09 0 0 1-.796.328h-3.563a1.15 1.15 0 0 1-.828-.328 1.13 1.13 0 0 1-.328-.813v-2.344q0-.467.328-.812.341-.342.828-.344h3.563q.469.002.796.344.342.344.344.812h.766q0-.794-.563-1.343a1.84 1.84 0 0 0-1.343-.563h-3.563q-.796 0-1.36.563a1.8 1.8 0 0 0-.562 1.343v2.344q0 .783.563 1.344.562.562 1.36.562ZM247.917 111.037h-7v-6.156h7v.75h-6.235v1.938h5.516v.765h-5.516v1.938h6.235ZM252.37 111.037h-.766v-6.156h5.985q.573.001.984.406.422.41.422.985v1.047q0 .578-.422 1a1.34 1.34 0 0 1-.984.406h-5.22Zm5.219-3.078a.62.62 0 0 0 .453-.187.61.61 0 0 0 .187-.453v-1.047a.6.6 0 0 0-.187-.438.62.62 0 0 0-.453-.187h-5.22v2.312ZM267.883 111.037h-.766v-1.672a.62.62 0 0 0-.187-.453.62.62 0 0 0-.453-.187h-5.219v2.312h-.766v-6.156h5.985q.574.001.984.406.422.41.422.985v1.047q-.002.61-.437 1.015.435.422.437 1.031Zm-1.406-3.078a.62.62 0 0 0 .453-.187.61.61 0 0 0 .187-.453v-1.047a.6.6 0 0 0-.187-.438.62.62 0 0 0-.453-.187h-5.219v2.312ZM274.646 111.037q.781 0 1.344-.562a1.83 1.83 0 0 0 .563-1.344v-2.344q0-.794-.563-1.343a1.84 1.84 0 0 0-1.344-.563h-3.562q-.796 0-1.36.563a1.8 1.8 0 0 0-.562 1.343v2.344q0 .783.563 1.344.562.562 1.359.562Zm0-.765h-3.562a1.15 1.15 0 0 1-.828-.328 1.13 1.13 0 0 1-.328-.813v-2.344q0-.467.328-.812.34-.342.828-.344h3.562q.47.002.797.344.342.344.344.812v2.344q-.002.471-.344.813a1.09 1.09 0 0 1-.797.328M281.898 111.037h-.406l-4.172-6.156h.922l3.453 5.094 3.438-5.094h.921ZM287.807 111.037v-6.156h-.765v6.156ZM294.992 111.037q.797 0 1.36-.562a1.83 1.83 0 0 0 .562-1.344v-2.344q0-.794-.562-1.343a1.85 1.85 0 0 0-1.36-.563h-5.469v6.156Zm0-.765h-4.703v-4.64h4.703c.32 0 .594.116.813.343q.341.344.343.812v2.344c0 .313-.117.586-.343.813a1.1 1.1 0 0 1-.813.328M305.412 111.037h-7v-6.156h7v.75h-6.235v1.938h5.516v.765h-5.516v1.938h6.235ZM314.309 111.037h-.766v-1.672a.62.62 0 0 0-.188-.453.62.62 0 0 0-.453-.187h-5.218v2.312h-.766v-6.156h5.984q.574.001.985.406.422.41.422.985v1.047c0 .406-.149.746-.438 1.015q.436.422.438 1.031Zm-1.407-3.078a.62.62 0 0 0 .453-.187.61.61 0 0 0 .188-.453v-1.047a.6.6 0 0 0-.188-.438.62.62 0 0 0-.453-.187h-5.218v2.312Zm0 0"/></svg>